<svg width="618" height="488" viewBox="0 0 618 488" fill="none" xmlns="http://www.w3.org/2000/svg">
<path d="M140.636 250.225C161.03 250.225 177.563 233.704 177.563 213.325C177.563 192.945 161.03 176.424 140.636 176.424C120.243 176.424 103.71 192.945 103.71 213.325C103.71 233.704 120.243 250.225 140.636 250.225Z" fill="#FF6584"/>
<path d="M369.401 255.107C369.401 327.756 326.182 353.123 272.869 353.123C219.556 353.123 176.337 327.756 176.337 255.107C176.337 182.457 272.869 90.0352 272.869 90.0352C272.869 90.0352 369.401 182.457 369.401 255.107Z" fill="#FF6584"/>
<path d="M269.352 342.01L270.341 281.208L311.485 205.988L270.495 271.671L270.94 244.332L299.296 189.911L271.058 237.097L271.857 187.927L302.222 144.602L271.983 180.195L272.482 90.0354L269.344 209.391L269.602 204.467L238.729 157.245L269.107 213.919L266.23 268.834L266.144 267.376L230.555 217.681L266.037 272.525L265.677 279.393L265.612 279.496L265.642 280.06L258.344 419.382H268.094L269.264 347.42L304.659 292.71L269.352 342.01Z" fill="#2F2E41"/>
<path d="M462.541 323.725C462.541 396.374 419.322 421.741 366.009 421.741C312.696 421.741 269.477 396.374 269.477 323.725C269.477 251.075 366.009 158.653 366.009 158.653C366.009 158.653 462.541 251.075 462.541 323.725Z" fill="#2F2E41"/>
<path d="M362.492 410.627L363.481 349.826L404.625 274.607L363.636 340.288L364.08 312.95L392.437 258.529L364.198 305.715V305.715L364.997 256.545L395.362 213.22L365.123 248.814L365.622 158.653L362.483 278.009L362.742 273.085L331.869 225.863L362.247 282.537L359.37 337.451L359.284 335.994L323.694 286.299L359.177 341.143L358.817 348.011L358.752 348.114L358.781 348.678L351.484 488H361.234L362.404 416.037L397.799 361.328L362.492 410.627Z" fill="#F2F2F2"/>
<path d="M281.02 323.725C281.02 396.374 237.801 421.741 184.488 421.741C131.175 421.741 87.9557 396.374 87.9557 323.725C87.9557 251.075 184.488 158.653 184.488 158.653C184.488 158.653 281.02 251.075 281.02 323.725Z" fill="#2F2E41"/>
<path d="M180.971 410.627L181.96 349.826L223.104 274.607L182.115 340.288L182.559 312.95L210.916 258.529L182.677 305.715V305.715L183.476 256.545L213.841 213.22L183.602 248.814L184.101 158.653L180.963 278.009L181.221 273.085L150.349 225.863L180.725 282.537L177.849 337.451L177.764 335.994L142.173 286.299L177.655 341.143L177.296 348.011L177.232 348.114L177.261 348.678L169.963 488H179.713L180.883 416.037L216.279 361.328L180.971 410.627Z" fill="#F2F2F2"/>
<path d="M275.326 487.386C229.157 487.386 184.416 471.389 148.726 442.119C113.036 412.85 88.6065 372.12 79.5991 326.868C70.5918 281.617 77.5642 234.645 99.3283 193.955C121.092 153.265 156.302 121.375 198.957 103.719C241.612 86.0628 289.073 83.7326 333.255 97.1257C377.436 110.519 415.604 138.806 441.255 177.168C466.905 215.53 478.451 261.594 473.926 307.509C469.4 353.425 449.083 396.352 416.437 428.976C397.949 447.552 375.958 462.28 351.736 472.306C327.515 482.332 301.544 487.458 275.326 487.386ZM275.326 90.0619C166.128 90.0619 77.2892 178.84 77.2892 287.963C77.2892 397.086 166.128 485.864 275.326 485.864C384.524 485.864 473.363 397.086 473.363 287.963C473.363 178.84 384.524 90.0619 275.326 90.0619Z" fill="#2F2E41"/>
<path d="M438.506 401.738V486.661H112.176V401.738L275.341 316.815L275.681 316.991L438.506 401.738Z" fill="#F2F2F2"/>
<path opacity="0.1" d="M438.506 401.738V486.661H275.681V316.991L438.506 401.738Z" fill="black"/>
<path d="M261.404 368.788L249.167 373.405V355.2L261.404 349.84V368.788Z" fill="#2F2E41"/>
<path d="M126.113 419.742L122.034 421.283V410.23L126.113 408.428V419.742Z" fill="#2F2E41"/>
<path d="M140.39 414.986L135.631 416.768V404.795L140.39 402.708V414.986Z" fill="#2F2E41"/>
<path d="M156.026 408.872L150.587 410.916V398.001L156.026 395.609V408.872Z" fill="#2F2E41"/>
<path d="M175.063 401.398L168.264 403.963V390.528L175.063 387.547V401.398Z" fill="#2F2E41"/>
<path d="M198.177 392.566L190.019 395.647V381.017L198.177 377.441V392.566Z" fill="#2F2E41"/>
<path d="M226.052 382.375L216.534 385.959V369.467L226.052 365.298V382.375Z" fill="#2F2E41"/>
<path d="M126.113 442.161L122.034 443.186V431.971L126.113 430.682V442.161Z" fill="#2F2E41"/>
<path d="M140.39 438.765L135.631 439.956V427.895L140.39 426.396V438.765Z" fill="#2F2E41"/>
<path d="M156.026 434.688L150.587 436.054V423.139L156.026 421.424V434.688Z" fill="#2F2E41"/>
<path d="M175.063 429.933L168.264 431.639V417.704L175.063 415.566V429.933Z" fill="#2F2E41"/>
<path d="M198.177 423.818L190.019 425.875V410.91L198.177 408.345V423.818Z" fill="#2F2E41"/>
<path d="M226.052 417.024L215.853 419.587V402.757L226.052 399.551V417.024Z" fill="#2F2E41"/>
<path d="M261.404 408.192L249.167 411.266V392.566L261.404 388.73V408.192Z" fill="#2F2E41"/>
<path d="M261.404 446.917L249.167 448.474V429.933L261.404 427.62V446.917Z" fill="#2F2E41"/>
<path d="M126.113 463.902L122.034 464.426V453.711L126.113 452.934V463.902Z" fill="#2F2E41"/>
<path d="M140.39 462.543L135.631 463.143V451.673L140.39 450.781V462.543Z" fill="#2F2E41"/>
<path d="M156.026 460.505L150.587 461.192V448.276L156.026 447.24V460.505Z" fill="#2F2E41"/>
<path d="M175.063 457.787L168.264 458.656V444.879L175.063 443.583V457.787Z" fill="#2F2E41"/>
<path d="M198.177 455.069L190.019 456.104V440.803L198.177 439.25V455.069Z" fill="#2F2E41"/>
<path d="M226.052 451.673L215.853 452.961V436.047L226.052 434.113V451.673Z" fill="#2F2E41"/>
<path d="M425.248 419.742L429.328 421.283V410.23L425.248 408.428V419.742Z" fill="#2F2E41"/>
<path d="M410.971 414.986L415.731 416.768V404.795L410.971 402.708V414.986Z" fill="#2F2E41"/>
<path d="M395.335 408.872L400.774 410.916V398.001L395.335 395.609V408.872Z" fill="#2F2E41"/>
<path d="M376.299 401.398L383.098 403.963V390.528L376.299 387.547V401.398Z" fill="#2F2E41"/>
<path d="M353.184 392.566L361.342 395.647V381.017L353.184 377.441V392.566Z" fill="#2F2E41"/>
<path d="M325.31 382.375L334.828 385.959V369.467L325.31 365.298V382.375Z" fill="#2F2E41"/>
<path d="M425.248 442.161L429.328 443.186V431.971L425.248 430.682V442.161Z" fill="#2F2E41"/>
<path d="M410.971 438.765L415.731 439.956V427.895L410.971 426.396V438.765Z" fill="#2F2E41"/>
<path d="M395.335 434.688L400.774 436.054V423.139L395.335 421.424V434.688Z" fill="#2F2E41"/>
<path d="M376.299 429.933L383.098 431.639V417.704L376.299 415.566V429.933Z" fill="#2F2E41"/>
<path d="M353.184 423.818L361.342 425.875V410.91L353.184 408.345V423.818Z" fill="#2F2E41"/>
<path d="M325.31 417.024L335.508 419.587V402.757L325.31 399.551V417.024Z" fill="#2F2E41"/>
<path d="M289.958 408.192L302.195 411.266V392.566L289.958 388.73V408.192Z" fill="#2F2E41"/>
<path d="M289.958 446.917L302.195 448.474V429.933L289.958 427.62V446.917Z" fill="#2F2E41"/>
<path d="M425.248 463.902L429.328 464.426V453.711L425.248 452.934V463.902Z" fill="#2F2E41"/>
<path d="M410.971 462.543L415.731 463.143V451.673L410.971 450.781V462.543Z" fill="#2F2E41"/>
<path d="M395.335 460.505L400.774 461.192V448.276L395.335 447.24V460.505Z" fill="#2F2E41"/>
<path d="M376.299 457.787L383.098 458.656V444.879L376.299 443.583V457.787Z" fill="#2F2E41"/>
<path d="M353.184 455.069L361.342 456.104V440.803L353.184 439.25V455.069Z" fill="#2F2E41"/>
<path d="M325.31 451.673L335.508 452.961V436.047L325.31 434.113V451.673Z" fill="#2F2E41"/>
<path d="M301.515 373.544L289.278 368.932V349.765L301.515 355.127V373.544Z" fill="#2F2E41"/>
<path d="M416.421 471.539H415.424V487.488H416.421V471.539Z" fill="#2F2E41"/>
<path d="M428.173 475.88H427.466V487.182H428.173V475.88Z" fill="#2F2E41"/>
<path d="M438.617 477.261H437.996V487.193H438.617V477.261Z" fill="#2F2E41"/>
<path d="M387.177 466.483V487.001L373.92 486.981L360.663 486.96V463.902L373.92 465.193L387.177 466.483Z" fill="#2F2E41"/>
<path d="M164.185 487.001L190.699 486.959V463.902L164.185 466.481V487.001Z" fill="#2F2E41"/>
<path d="M594.066 486.322H0V487.68H594.066V486.322Z" fill="#2F2E41"/>
<path opacity="0.1" d="M387.177 466.483V487.001L373.92 486.981V465.193L387.177 466.483Z" fill="black"/>
<path d="M273.981 468.318H272.621V487.341H273.981V468.318Z" fill="#2F2E41"/>
<path d="M281.148 461.545C281.148 468.211 277.585 473.774 273.301 473.965C269.137 474.151 265.845 469.163 265.845 462.829C265.845 456.494 273.981 439.104 273.981 439.104C273.981 439.104 281.148 454.88 281.148 461.545Z" fill="#FF6584"/>
<path d="M114.02 474.414H113.209V485.761H114.02V474.414Z" fill="#2F2E41"/>
<path d="M118.295 470.375C118.295 474.351 116.169 477.669 113.614 477.783C111.13 477.894 109.167 474.918 109.167 471.14C109.167 467.362 114.02 456.989 114.02 456.989C114.02 456.989 118.295 466.399 118.295 470.375Z" fill="#FF6584"/>
<path d="M421.409 472.168C421.409 475.95 419.024 478.903 415.922 478.758C412.629 478.604 409.806 475.054 409.806 470.838C409.806 466.622 415.922 456.089 415.922 456.089C415.922 456.089 421.409 468.387 421.409 472.168Z" fill="#FF6584"/>
<path d="M431.707 476.326C431.707 479.006 430.017 481.099 427.82 480.996C425.486 480.886 423.486 478.371 423.486 475.383C423.486 472.396 427.82 464.932 427.82 464.932C427.82 464.932 431.707 473.647 431.707 476.326Z" fill="#FF6584"/>
<path d="M441.723 477.652C441.723 480.007 440.238 481.847 438.306 481.756C436.255 481.66 434.497 479.449 434.497 476.824C434.497 474.198 438.306 467.638 438.306 467.638C438.306 467.638 441.723 475.297 441.723 477.652Z" fill="#FF6584"/>
<path d="M446.551 109.447C446.551 109.447 439.934 129.285 443.61 133.694C447.286 138.102 421.552 120.468 421.552 120.468L435.522 104.303L446.551 109.447Z" fill="#A0616A"/>
<path d="M431.46 109.414C449.692 109.414 464.472 94.6445 464.472 76.425C464.472 58.2056 449.692 43.4358 431.46 43.4358C413.228 43.4358 398.448 58.2056 398.448 76.425C398.448 94.6445 413.228 109.414 431.46 109.414Z" fill="#2F2E41"/>
<path d="M559.782 332.812L542.871 346.038L533.312 330.608L550.223 318.852L559.782 332.812Z" fill="#A0616A"/>
<path d="M535.885 432.372L540.297 453.68L552.797 470.58C552.797 470.58 586.619 480.866 563.825 486.009C541.032 491.153 535.885 482.336 535.885 482.336L519.71 468.375V487.479H509.416L507.21 460.293C507.21 460.293 505.74 452.211 512.357 443.394L513.828 430.168L535.885 432.372Z" fill="#2F2E41"/>
<path d="M450.595 168.594L456.477 202.393C456.477 202.393 518.974 195.78 523.386 208.271C527.798 220.762 529.268 224.436 529.268 224.436L516.769 228.845L510.886 217.823C509.095 217.189 507.193 216.927 505.296 217.054C503.4 217.18 501.549 217.692 499.858 218.558C493.975 221.497 442.507 228.845 438.831 219.293C435.154 209.741 424.861 174.473 424.861 174.473L440.301 161.982L450.595 168.594Z" fill="#A0616A"/>
<path opacity="0.1" d="M450.595 168.594L456.477 202.393C456.477 202.393 518.974 195.78 523.386 208.271C527.798 220.762 529.268 224.436 529.268 224.436L516.769 228.845L510.886 217.823C509.095 217.189 507.193 216.927 505.296 217.054C503.4 217.18 501.549 217.692 499.858 218.558C493.975 221.497 442.507 228.845 438.831 219.293C435.154 209.741 424.861 174.473 424.861 174.473L440.301 161.982L450.595 168.594Z" fill="black"/>
<path d="M485.152 266.317L490.299 283.951L503.534 351.549C503.534 351.549 505.004 401.512 507.21 407.39C509.416 413.269 509.416 414.003 507.21 416.208C505.004 418.412 500.593 425.759 507.21 430.168C513.828 434.576 537.356 439.72 538.091 434.576C538.827 429.433 538.827 421.351 538.091 417.677C537.356 414.003 540.297 356.692 540.297 356.692L531.474 269.256L501.328 255.296L485.152 266.317Z" fill="#2F2E41"/>
<path opacity="0.1" d="M485.152 266.317L490.299 283.951L503.534 351.549C503.534 351.549 505.004 401.512 507.21 407.39C509.416 413.269 509.416 414.003 507.21 416.208C505.004 418.412 500.593 425.759 507.21 430.168C513.828 434.576 537.356 439.72 538.091 434.576C538.827 429.433 538.827 421.351 538.091 417.677C537.356 414.003 540.297 356.692 540.297 356.692L531.474 269.256L501.328 255.296L485.152 266.317Z" fill="black"/>
<path d="M516.769 197.25L532.944 228.11C532.944 228.11 625.588 269.256 617.5 286.156C609.412 303.055 564.561 334.65 564.561 334.65C564.561 334.65 562.355 347.14 555.738 343.467C549.12 339.793 532.944 320.689 534.415 318.485C535.885 316.281 541.032 311.137 543.238 311.872C545.444 312.607 571.178 292.768 571.178 292.768L527.062 281.747C527.062 281.747 474.123 280.278 471.182 255.296C468.241 230.314 471.182 225.906 471.182 225.906L467.506 217.823L497.652 199.454L516.769 197.25Z" fill="#2F2E41"/>
<path d="M539.562 319.22L524.121 333.18C524.121 333.18 510.886 327.302 502.799 329.506C494.711 331.711 480.741 333.18 480.741 333.18L482.946 345.671L501.706 342.212L486.623 363.305C486.623 363.305 486.623 396.369 496.181 396.369C505.74 396.369 502.799 376.531 502.799 376.531L532.209 353.753C532.209 353.753 546.914 347.875 548.385 347.875C549.855 347.875 539.562 319.22 539.562 319.22Z" fill="#2F2E41"/>
<path d="M443.61 115.325C457.416 115.325 468.609 104.14 468.609 90.3428C468.609 76.5458 457.416 65.3611 443.61 65.3611C429.803 65.3611 418.611 76.5458 418.611 90.3428C418.611 104.14 429.803 115.325 443.61 115.325Z" fill="#A0616A"/>
<path d="M418.979 109.814C418.979 109.814 430.743 106.875 434.419 109.814C438.095 112.753 438.831 119.366 443.978 120.101C449.124 120.835 453.536 120.835 454.271 121.57C455.006 122.305 471.918 142.878 471.918 142.878C471.918 142.878 482.211 148.756 484.417 156.838C486.623 164.921 508.681 192.107 511.622 195.046C514.563 197.985 492.505 212.68 485.152 217.823C477.8 222.966 456.477 225.171 449.86 213.415C443.242 201.659 407.214 125.244 418.979 109.814Z" fill="#FF6584"/>
<path d="M446.919 157.573L452.801 191.372C452.801 191.372 515.298 184.759 519.71 197.25C524.121 209.741 525.592 213.415 525.592 213.415L513.092 217.823L507.21 206.802C505.419 206.168 503.516 205.906 501.62 206.032C499.723 206.159 497.873 206.671 496.181 207.537C490.299 210.476 438.831 217.823 435.154 208.271C431.478 198.72 421.184 163.451 421.184 163.451L436.625 150.96L446.919 157.573Z" fill="#A0616A"/>
<path d="M432.868 112.905C432.868 112.905 450.595 150.225 449.124 160.512C447.654 170.799 442.507 163.451 442.507 163.451C442.507 163.451 435.89 153.165 432.949 159.043C430.008 164.921 426.331 173.003 423.39 172.268C420.449 171.533 404.273 117.161 413.096 112.018C421.92 106.875 432.868 112.905 432.868 112.905Z" fill="#FF6584"/>
<path d="M395.697 65.9785C413.929 65.9785 428.709 51.2087 428.709 32.9892C428.709 14.7698 413.929 0 395.697 0C377.465 0 362.685 14.7698 362.685 32.9892C362.685 51.2087 377.465 65.9785 395.697 65.9785Z" fill="#2F2E41"/>
<path d="M367.223 60.3064C371.495 63.3925 376.446 65.4111 381.659 66.1934C386.873 66.9757 392.198 66.4989 397.189 64.8029C402.181 63.1069 406.693 60.2411 410.349 56.4451C414.004 52.6492 416.697 48.0335 418.202 42.9843C417.632 47.5092 416.13 51.867 413.791 55.7825C411.451 59.698 408.324 63.0863 404.608 65.7333C400.892 68.3803 396.667 70.2287 392.2 71.1616C387.732 72.0945 383.12 72.0918 378.654 71.1535C374.188 70.2153 369.965 68.362 366.252 65.7106C362.539 63.0591 359.416 59.6672 357.081 55.7489C354.746 51.8306 353.249 47.471 352.685 42.9455C352.121 38.4199 352.502 33.8267 353.804 29.4557C353.065 35.3281 353.921 41.2911 356.281 46.7192C358.642 52.1474 362.422 56.8405 367.223 60.3064Z" fill="#2F2E41"/>
<path d="M424.67 106.115C438.04 106.115 448.878 95.2841 448.878 81.9232C448.878 68.5622 438.04 57.7311 424.67 57.7311C411.3 57.7311 400.461 68.5622 400.461 81.9232C400.461 95.2841 411.3 106.115 424.67 106.115Z" fill="#2F2E41"/>
<path d="M443.014 89.6207C454.865 89.6207 464.472 82.1127 464.472 72.8512C464.472 63.5896 454.865 56.0817 443.014 56.0817C431.164 56.0817 421.557 63.5896 421.557 72.8512C421.557 82.1127 431.164 89.6207 443.014 89.6207Z" fill="#2F2E41"/>
<path d="M443.978 101.364C446.617 101.364 448.757 97.5811 448.757 92.9144C448.757 88.2478 446.617 84.4647 443.978 84.4647C441.338 84.4647 439.198 88.2478 439.198 92.9144C439.198 97.5811 441.338 101.364 443.978 101.364Z" fill="#A0616A"/>
<path d="M509.581 217.502C509.581 217.502 522.597 210.039 525.013 211.911C527.43 213.782 528.503 219.638 528.503 219.638L513.46 225.538L509.048 217.456L509.581 217.502Z" fill="#2F2E41"/>
</svg>
