<svg width="842" height="691" viewBox="0 0 842 691" fill="none" xmlns="http://www.w3.org/2000/svg">
<g opacity="0.25" clip-path="url(#clip0_255_277)">
<path d="M207.786 630.518L209.498 666.646L209.498 666.648C209.787 672.754 207.641 678.725 203.532 683.248C199.423 687.77 193.688 690.474 187.588 690.763L186.841 690.799L184.038 631.646L207.786 630.518Z" fill="#3F3D56"/>
<path d="M720.913 569.462C703.723 603.042 681.92 635.518 654.334 664.912C653.721 665.576 653.103 666.222 652.478 666.88L587.118 635.906C587.518 635.241 587.956 634.495 588.428 633.679C616.504 585.591 785.986 292.252 780.631 225.814C781.254 231.294 801.343 412.504 720.913 569.462Z" fill="#E6E6E6"/>
<path d="M666.943 670.888C666.029 671.408 665.09 671.918 664.146 672.41L615.115 649.174C615.8 648.687 616.599 648.111 617.516 647.464C632.538 636.668 677.206 604.275 720.913 569.462C767.883 532.051 813.752 491.854 820.563 472.667C819.18 477.067 776.189 610.81 666.943 670.888Z" fill="#E6E6E6"/>
<path d="M81.5619 689.356C123.353 689.356 157.231 655.442 157.231 613.607C157.231 571.773 123.353 537.859 81.5619 537.859C39.7709 537.859 5.89252 571.773 5.89252 613.607C5.89252 655.442 39.7709 689.356 81.5619 689.356Z" fill="#FF6584"/>
<path d="M111.873 581.821H51.2512C48.5726 581.824 46.0044 582.89 44.1103 584.786C42.2162 586.683 41.1507 589.253 41.1477 591.935V635.281C41.1507 637.962 42.2161 640.533 44.1103 642.429C46.0044 644.325 48.5725 645.392 51.2512 645.395H111.873C114.551 645.392 117.119 644.325 119.014 642.429C120.908 640.533 121.973 637.962 121.976 635.281V591.935C121.973 589.253 120.908 586.683 119.014 584.786C117.119 582.89 114.551 581.824 111.873 581.821ZM111.873 587.6C112.234 587.602 112.595 587.649 112.945 587.74L81.5689 612.795L50.3763 587.689C50.6642 587.63 50.9573 587.6 51.2512 587.6H111.873ZM111.873 639.615H51.2512C50.1032 639.614 49.0026 639.157 48.1909 638.344C47.3791 637.532 46.9225 636.43 46.9212 635.281V592.324L79.7532 618.75C80.2644 619.161 80.9004 619.386 81.5564 619.387C82.2124 619.388 82.8493 619.166 83.3621 618.756L116.203 592.532V635.281C116.201 636.43 115.745 637.532 114.933 638.344C114.121 639.157 113.021 639.614 111.873 639.615Z" fill="white"/>
<path d="M373.588 504.247L390.519 504.386C392.232 504.4 393.928 504.04 395.487 503.331C397.047 502.622 398.434 501.58 399.55 500.28C400.667 498.979 401.487 497.45 401.952 495.799C402.418 494.149 402.518 492.416 402.246 490.723C401.953 488.901 401.237 487.173 400.156 485.678C399.074 484.183 397.657 482.963 396.019 482.116C394.38 481.27 392.566 480.82 390.722 480.803C388.878 480.787 387.056 481.203 385.403 482.02L369.436 489.907L314.825 502.098L291.429 478.153L277.99 500.311L309.561 524.728L373.588 504.247Z" fill="#FFB8B8"/>
<path d="M370.414 679.356L350.467 683.196C336.841 640.201 322.078 599.484 322.079 567.993C302.797 589.476 278.885 601.766 250.727 605.626L253.796 558.009L276.813 545.72L312.04 529.445C315.124 528.02 318.451 527.196 321.843 527.017C328.438 526.67 334.929 528.777 340.065 532.932C345.201 537.088 348.62 542.999 349.663 549.527L370.414 679.356Z" fill="#3F3D56"/>
<path d="M274.895 599.866L266.944 605.914C263.525 608.515 259.487 610.176 255.229 610.732C250.971 611.287 246.642 610.719 242.671 609.082C219.899 591.995 203.721 597.036 189.058 622.827C171.471 602.957 167.131 574.258 182.828 544.568L269.908 546.488L287.554 541.112L274.895 599.866Z" fill="#3F3D56"/>
<path d="M245.894 688.85C240.904 690.387 235.533 690.117 230.722 688.088C225.911 686.059 221.967 682.4 219.58 677.752C211.754 670.852 205.151 660.973 199.424 648.959C195.315 640.147 191.787 631.075 188.862 621.801C184.899 609.548 191.525 596.163 203.858 592.497C204.225 592.388 204.596 592.286 204.972 592.189C221.436 587.958 238.343 597.464 243.971 613.52L260.336 660.207C261.302 662.965 261.717 665.887 261.556 668.806C261.394 671.724 260.661 674.582 259.396 677.217C258.131 679.851 256.361 682.211 254.185 684.16C252.01 686.11 249.472 687.611 246.717 688.579C246.444 688.675 246.17 688.765 245.894 688.85Z" fill="#3F3D56"/>
<path opacity="0.2" d="M196.638 643.643C196.638 643.643 215.818 665.148 219.654 677.436L196.638 643.643Z" fill="black"/>
<path d="M122.248 542.154L115.828 557.838C115.179 559.425 114.883 561.135 114.961 562.848C115.039 564.561 115.49 566.237 116.282 567.758C117.074 569.279 118.187 570.608 119.545 571.654C120.903 572.7 122.472 573.437 124.144 573.813C125.942 574.218 127.811 574.195 129.599 573.745C131.388 573.295 133.046 572.431 134.439 571.223C135.833 570.015 136.924 568.496 137.625 566.789C138.325 565.081 138.616 563.233 138.473 561.393L137.089 543.623L146.071 488.339L176.971 475.49L161.414 454.769L127.039 475.039L122.248 542.154Z" fill="#FFB8B8"/>
<path d="M275.662 544.568C253.618 581.635 209.672 595.988 172.032 566.963C178.653 545.185 200.03 484.997 186.22 482.693C156.899 495.002 156.856 466.101 151.371 451.637L218.12 427.061L254.18 437.045L261.571 439.67C266.382 441.379 270.554 444.522 273.528 448.675C276.501 452.829 278.132 457.794 278.202 462.903C263.055 484.809 251.841 508.177 275.662 544.568Z" fill="#FF6584"/>
<path d="M284.101 514.615L257.632 492.726L266.455 441.653L302.515 480.054L284.101 514.615Z" fill="#FF6584"/>
<path d="M723.309 163.753H719.526V60.0304C719.526 44.1093 713.208 28.8404 701.961 17.5825C690.715 6.32461 675.462 0 659.558 0H440.034C424.13 0 408.876 6.32461 397.63 17.5825C386.384 28.8404 380.066 44.1093 380.066 60.0304V629.063C380.066 644.984 386.384 660.253 397.63 671.511C408.876 682.769 424.13 689.094 440.034 689.094H659.557C675.461 689.094 690.714 682.769 701.96 671.511C713.207 660.253 719.525 644.984 719.525 629.063V237.585H723.308L723.309 163.753Z" fill="#3F3D56"/>
<path d="M661.977 15.6165H633.322C634.64 18.8508 635.144 22.3601 634.788 25.8352C634.432 29.3102 633.228 32.6444 631.282 35.5438C629.336 38.4432 626.707 40.8189 623.627 42.4615C620.547 44.1041 617.111 44.9632 613.621 44.9632H487.86C484.371 44.9629 480.935 44.1036 477.856 42.4611C474.777 40.8186 472.148 38.4432 470.202 35.5442C468.256 32.6452 467.051 29.3115 466.695 25.837C466.339 22.3624 466.843 18.8535 468.16 15.6193H441.392C429.515 15.6193 418.123 20.3426 409.725 28.7502C401.326 37.1577 396.607 48.5608 396.607 60.4508V628.646C396.607 640.536 401.326 651.939 409.725 660.346C418.123 668.754 429.515 673.477 441.392 673.477H661.969C673.846 673.477 685.237 668.754 693.636 660.346C702.035 651.939 706.753 640.536 706.753 628.646V628.646V60.448C706.753 48.5579 702.035 37.1548 693.636 28.7473C685.237 20.3398 673.846 15.6165 661.969 15.6165H661.977L661.977 15.6165Z" fill="white"/>
<path d="M552.063 641.724C565.646 641.724 576.656 630.703 576.656 617.106C576.656 603.51 565.646 592.488 552.063 592.488C538.481 592.488 527.471 603.51 527.471 617.106C527.471 630.703 538.481 641.724 552.063 641.724Z" fill="#E6E6E6"/>
<path d="M452.297 389.438C449.972 389.438 448.081 391.599 448.081 394.255C448.081 396.912 449.972 399.073 452.297 399.073H651.064C653.388 399.073 655.28 396.912 655.28 394.255C655.28 391.599 653.388 389.438 651.064 389.438H452.297Z" fill="#E6E6E6"/>
<path d="M452.297 503.061C449.972 503.061 448.081 505.222 448.081 507.878C448.081 510.534 449.972 512.695 452.297 512.695H651.064C653.388 512.695 655.28 510.534 655.28 507.878C655.28 505.222 653.388 503.061 651.064 503.061H452.297Z" fill="#E6E6E6"/>
<path d="M452.297 418.343C449.972 418.343 448.081 420.505 448.081 423.161C448.081 425.817 449.972 427.978 452.297 427.978H537.827C540.152 427.978 542.043 425.817 542.043 423.161C542.043 420.505 540.152 418.343 537.827 418.343H452.297Z" fill="#E6E6E6"/>
<path d="M452.297 445.895C449.972 445.895 448.081 448.056 448.081 450.712C448.081 453.369 449.972 455.53 452.297 455.53H651.064C653.388 455.53 655.28 453.369 655.28 450.712C655.28 448.056 653.388 445.895 651.064 445.895H452.297Z" fill="#E6E6E6"/>
<path d="M452.297 474.8C449.972 474.8 448.081 476.961 448.081 479.617C448.081 482.273 449.972 484.435 452.297 484.435H537.827C540.152 484.435 542.043 482.273 542.043 479.617C542.043 476.961 540.152 474.8 537.827 474.8H452.297Z" fill="#E6E6E6"/>
<path d="M489.82 170.08H613.553C614.92 170.082 616.23 170.626 617.196 171.593C618.163 172.561 618.707 173.873 618.708 175.241V304.237C618.707 305.605 618.163 306.917 617.196 307.884C616.23 308.852 614.92 309.396 613.553 309.398H489.82C488.454 309.396 487.143 308.852 486.177 307.884C485.21 306.917 484.667 305.605 484.665 304.237V175.241C484.667 173.873 485.21 172.561 486.177 171.593C487.143 170.626 488.454 170.082 489.82 170.08Z" fill="#FF6584"/>
<path d="M587.188 282.797C587.648 282.798 588.104 282.708 588.529 282.532C588.954 282.357 589.341 282.099 589.667 281.774C589.993 281.448 590.251 281.062 590.428 280.637C590.604 280.211 590.695 279.755 590.695 279.295C590.695 278.834 590.605 278.378 590.429 277.952C590.253 277.527 589.995 277.14 589.669 276.815C589.344 276.489 588.957 276.231 588.532 276.055C588.107 275.879 587.651 275.789 587.191 275.789H516.185C515.725 275.788 515.269 275.878 514.844 276.054C514.419 276.229 514.032 276.487 513.706 276.812C513.381 277.137 513.122 277.524 512.946 277.949C512.769 278.375 512.678 278.831 512.678 279.291C512.678 279.752 512.768 280.208 512.944 280.633C513.12 281.059 513.378 281.446 513.704 281.771C514.029 282.097 514.416 282.355 514.841 282.531C515.266 282.707 515.722 282.797 516.182 282.797H587.188Z" fill="white"/>
<path d="M587.188 262.153C588.116 262.153 589.006 261.784 589.663 261.127C590.319 260.47 590.688 259.579 590.688 258.649C590.688 257.72 590.319 256.829 589.663 256.172C589.006 255.515 588.116 255.146 587.188 255.146H516.185C515.257 255.145 514.367 255.514 513.71 256.171C513.053 256.827 512.684 257.718 512.683 258.648C512.683 259.577 513.051 260.468 513.707 261.126C514.363 261.783 515.254 262.153 516.182 262.153H587.188Z" fill="white"/>
<path d="M551.686 196.682C556.044 196.682 560.303 197.975 563.926 200.398C567.55 202.822 570.373 206.266 572.041 210.296C573.708 214.326 574.145 218.761 573.295 223.039C572.445 227.317 570.346 231.247 567.265 234.331C564.184 237.416 560.258 239.516 555.985 240.367C551.711 241.218 547.281 240.781 543.255 239.112C539.229 237.443 535.789 234.616 533.368 230.989C530.947 227.362 529.655 223.098 529.655 218.736C529.661 212.889 531.985 207.283 536.115 203.149C540.245 199.014 545.845 196.688 551.686 196.682Z" fill="white"/>
<path d="M270.579 420.374H205.172C203.827 420.372 202.537 419.837 201.585 418.884C200.634 417.932 200.099 416.641 200.097 415.294V387.072C200.097 377.042 204.078 367.423 211.162 360.331C218.247 353.239 227.856 349.255 237.875 349.255C247.895 349.255 257.504 353.239 264.588 360.331C271.673 367.423 275.653 377.042 275.653 387.072V415.294C275.652 416.641 275.117 417.932 274.165 418.884C273.214 419.837 271.924 420.372 270.579 420.374Z" fill="#3F3D56"/>
<path d="M269.4 404.247C276.737 390.811 271.804 373.964 258.382 366.619C244.96 359.274 228.131 364.212 220.793 377.649C213.456 391.085 218.389 407.931 231.811 415.276C245.234 422.621 262.063 417.683 269.4 404.247Z" fill="#FFB6B6"/>
<path d="M284.591 389.894H244.596L244.186 384.146L242.135 389.894H235.977L235.164 378.502L231.1 389.894H219.184V389.33C219.193 381.398 222.344 373.795 227.947 368.186C233.549 362.578 241.145 359.424 249.068 359.415H254.707C262.63 359.423 270.225 362.578 275.828 368.186C281.43 373.795 284.582 381.398 284.591 389.33V389.894Z" fill="#3F3D56"/>
<path d="M244.269 425.642C243.968 425.642 243.667 425.615 243.371 425.563L214.085 420.39V371.939H246.323L245.525 372.871C234.42 385.835 242.786 406.857 248.761 418.234C249.202 419.067 249.398 420.008 249.328 420.948C249.258 421.888 248.924 422.789 248.364 423.547C247.896 424.196 247.28 424.724 246.568 425.088C245.856 425.452 245.068 425.642 244.269 425.642Z" fill="#3F3D56"/>
<path d="M341.773 664.855L377.905 664.854H377.906C384.013 664.854 389.869 667.283 394.188 671.605C398.506 675.928 400.932 681.79 400.932 687.904V688.653L341.774 688.655L341.773 664.855Z" fill="#3F3D56"/>
<path d="M840.876 691H0.945867C0.695008 691 0.454422 690.9 0.277037 690.723C0.0996529 690.545 0 690.304 0 690.053C0 689.802 0.0996529 689.561 0.277037 689.384C0.454422 689.206 0.695008 689.106 0.945867 689.106H840.876C841.127 689.106 841.367 689.206 841.545 689.384C841.722 689.561 841.822 689.802 841.822 690.053C841.822 690.304 841.722 690.545 841.545 690.723C841.367 690.9 841.127 691 840.876 691Z" fill="#CACACA"/>
</g>
<defs>
<clipPath id="clip0_255_277">
<rect width="841.822" height="691" fill="white"/>
</clipPath>
</defs>
</svg>
