<svg width="607" height="363" viewBox="0 0 607 363" fill="none" xmlns="http://www.w3.org/2000/svg">
<g clip-path="url(#clip0_226_29)">
<path d="M499.232 41.5692C429.485 -12.1249 332.45 -14.3189 261.658 37.9971C224.236 65.6533 195.224 107.965 200.502 172.389C202.368 195.176 207.56 213.871 215.135 229.174C245.818 291.214 371.837 288.825 378.836 288.816C383.37 288.811 387.905 288.912 392.439 289.119C408.321 289.848 424.12 291.842 439.683 295.085C461.874 299.704 490.123 302.025 515.363 293.276C519.652 291.797 523.819 289.987 527.827 287.864C541.697 280.502 557.225 273.467 566.302 256.005C573.124 242.9 578.094 226.468 580.486 206.001C589.191 131.464 545.692 77.335 499.232 41.5692Z" fill="#F2F2F2"/>
<path d="M392.744 308.709C502.894 308.709 592.188 300.338 592.188 290.011C592.188 279.685 502.894 271.313 392.744 271.313C282.594 271.313 193.299 279.685 193.299 290.011C193.299 300.338 282.594 308.709 392.744 308.709Z" fill="#3F3D56"/>
<path opacity="0.1" d="M383.001 298.788C485.449 298.788 568.499 294.859 568.499 290.011C568.499 285.164 485.449 281.235 383.001 281.235C280.553 281.235 197.502 285.164 197.502 290.011C197.502 294.859 280.553 298.788 383.001 298.788Z" fill="black"/>
<path d="M485.621 39.5924V60.5697H458.276V289.344H515.344V69.2778V60.5697V39.5924H485.621Z" fill="#575A89"/>
<path d="M335.026 180.498V144.48H300.151V180.498H287.073V289.739H347.707V180.498H335.026Z" fill="#575A89"/>
<path d="M340.97 239.077H293.81V290.135H340.97V239.077Z" fill="#3F3D56"/>
<path opacity="0.1" d="M301.34 239.077H293.81V290.135H301.34V239.077Z" fill="black"/>
<path d="M438.065 28.1139V40.3838H368.315V28.1139H347.707V290.135H458.276V28.1139H438.065Z" fill="#3F3D56"/>
<path opacity="0.1" d="M453.52 28.1141H438.065V40.384H453.52V28.1141Z" fill="black"/>
<path opacity="0.1" d="M363.163 28.1141H347.707V290.135H363.163V28.1141Z" fill="black"/>
<path d="M268.843 102.921V93.0256H258.539V102.921H239.913V290.135H287.073V102.921H268.843Z" fill="#3F3D56"/>
<path opacity="0.1" d="M264.087 93.0257H258.539V102.921H264.087V93.0257Z" fill="black"/>
<path opacity="0.1" d="M245.461 102.921H239.913V290.135H245.461V102.921Z" fill="black"/>
<path opacity="0.1" d="M453.52 129.044H438.065V290.135H453.52V129.044Z" fill="black"/>
<path opacity="0.1" d="M287.073 102.921H272.806V137.356H287.073V102.921Z" fill="black"/>
<path d="M386.941 61.3615H364.748V70.8608H386.941V61.3615Z" fill="#FF6584"/>
<path d="M434.102 159.125H411.909V168.624H434.102V159.125Z" fill="#FF6584"/>
<path d="M386.941 227.598H364.748V237.098H386.941V227.598Z" fill="#FF6584"/>
<path d="M274.788 145.667H252.595V155.167H274.788V145.667Z" fill="#FF6584"/>
<path d="M328.685 244.618H306.492V254.117H328.685V244.618Z" fill="#FF6584"/>
<path opacity="0.1" d="M336.611 188.81H298.566V204.642H336.611V188.81Z" fill="black"/>
<path opacity="0.1" d="M503.058 78.7768H465.013V94.6089H503.058V78.7768Z" fill="black"/>
<path opacity="0.1" d="M503.058 112.42H465.013V128.252H503.058V112.42Z" fill="black"/>
<path opacity="0.1" d="M503.058 146.063H465.013V161.895H503.058V146.063Z" fill="black"/>
<path opacity="0.1" d="M503.058 179.706H465.013V195.538H503.058V179.706Z" fill="black"/>
<path opacity="0.1" d="M503.058 213.35H465.013V229.182H503.058V213.35Z" fill="black"/>
<path opacity="0.1" d="M503.058 246.993H465.013V262.825H503.058V246.993Z" fill="black"/>
<path d="M528.422 150.417V107.274H500.68V150.417H490.773V290.135H537.933V150.417H528.422Z" fill="#3F3D56"/>
<path opacity="0.1" d="M509.399 107.275H500.681V150.417H509.399V107.275Z" fill="black"/>
<path opacity="0.1" d="M499.492 150.417H490.773V290.135H499.492V150.417Z" fill="black"/>
<path opacity="0.1" d="M537.933 220.474H514.551V234.327H537.933V220.474Z" fill="black"/>
<path d="M537.537 199.892H515.344V209.392H537.537V199.892Z" fill="#FF6584"/>
<path d="M607 209.482C607 244.745 586.01 257.057 560.118 257.057C534.227 257.057 513.237 244.745 513.237 209.482C513.237 174.22 560.118 129.36 560.118 129.36C560.118 129.36 607 174.22 607 209.482Z" fill="#FF6584"/>
<path d="M558.411 251.663L558.891 222.151L578.873 185.641L558.966 217.522L559.182 204.252L572.953 177.838L559.239 200.741L559.628 176.875L574.374 155.845L559.688 173.122L559.931 129.36L558.407 187.293L558.532 184.903L543.539 161.982L558.291 189.491L556.894 216.145L556.853 215.437L539.568 191.317L556.801 217.937L556.625 221.27L556.594 221.32L556.609 221.594L553.065 289.218H557.8L558.368 254.289L575.558 227.734L558.411 251.663Z" fill="#3F3D56"/>
<path d="M263.408 209.864C263.408 245.126 242.419 257.439 216.527 257.439C190.635 257.439 169.646 245.126 169.646 209.864C169.646 174.601 216.527 129.742 216.527 129.742C216.527 129.742 263.408 174.601 263.408 209.864Z" fill="#FF6584"/>
<path d="M214.819 252.045L215.299 222.533L235.281 186.023L215.375 217.903L215.59 204.634L229.362 178.219L215.648 201.122V201.123L216.036 177.257L230.783 156.227L216.097 173.504L216.34 129.742L214.815 187.674L214.94 185.285L199.947 162.364L214.7 189.872L213.303 216.526L213.261 215.819L195.977 191.698L213.209 218.319L213.034 221.651L213.003 221.702L213.017 221.975L209.473 289.599H214.208L214.776 254.67L231.966 228.116L214.819 252.045Z" fill="#3F3D56"/>
<path d="M111.887 363C173.68 363 223.774 356.233 223.774 347.885C223.774 339.537 173.68 332.769 111.887 332.769C50.0935 332.769 0 339.537 0 347.885C0 356.233 50.0935 363 111.887 363Z" fill="#3F3D56"/>
<path opacity="0.1" d="M111.887 359.714C160.247 359.714 199.451 354.418 199.451 347.885C199.451 341.352 160.247 336.055 111.887 336.055C63.5268 336.055 24.3232 341.352 24.3232 347.885C24.3232 354.418 63.5268 359.714 111.887 359.714Z" fill="black"/>
<path d="M96.0658 132.679C109.193 132.679 119.834 122.051 119.834 108.94C119.834 95.8299 109.193 85.202 96.0658 85.202C82.9389 85.202 72.2974 95.8299 72.2974 108.94C72.2974 122.051 82.9389 132.679 96.0658 132.679Z" fill="#3F3D56"/>
<path d="M102.557 130.189C109.904 130.189 115.86 124.241 115.86 116.903C115.86 109.565 109.904 103.617 102.557 103.617C95.2102 103.617 89.2544 109.565 89.2544 116.903C89.2544 124.241 95.2102 130.189 102.557 130.189Z" fill="#FFB9B9"/>
<path d="M95.1166 123.884C95.1166 123.884 98.4986 131.99 93.3128 134.242C88.127 136.494 90.1562 149.78 90.1562 149.78L110.449 145.501C110.449 145.501 110.449 139.872 106.39 137.395C102.332 134.918 111.801 123.884 111.801 123.884H95.1166Z" fill="#FFB9B9"/>
<path d="M88.5782 183.783L89.2544 191.214L119.693 196.393L116.762 182.657L88.5782 183.783Z" fill="#FFB9B9"/>
<path d="M88.127 243.457L89.2544 274.983C89.2544 274.983 83.8431 287.818 88.127 311.463C92.4109 335.107 89.2544 341.638 89.2544 341.638L104.586 343.664L103.684 334.882L100.077 327.226L101.655 283.54C101.655 283.54 108.645 267.327 108.87 264.174C109.096 261.021 108.419 238.052 108.419 238.052L88.127 243.457Z" fill="#FFB9B9"/>
<path opacity="0.1" d="M88.127 243.457L89.2544 274.983C89.2544 274.983 83.8431 287.818 88.127 311.463C92.4109 335.107 89.2544 341.638 89.2544 341.638L104.586 343.664L103.684 334.882L100.077 327.226L101.655 283.54C101.655 283.54 108.645 267.327 108.87 264.174C109.096 261.021 108.419 238.052 108.419 238.052L88.127 243.457Z" fill="black"/>
<path d="M92.8619 330.829C92.8619 330.829 92.8619 327.901 91.5091 327.676C90.1562 327.451 88.3525 326.775 88.3525 327.676C88.3525 328.577 88.127 334.882 87.6761 335.783C87.2251 336.684 86.3232 340.061 86.9996 341.412C86.9996 341.412 84.9704 346.592 86.5487 347.042C88.127 347.492 97.1458 347.492 97.1458 347.492L97.5968 345.015C97.5968 345.015 117.664 351.321 121.948 345.691C121.948 345.691 123.977 341.638 120.369 340.737C120.369 340.737 112.252 340.962 109.321 337.584C106.39 334.207 100.753 326.325 100.753 326.325C100.753 326.325 96.2439 327.001 96.6949 329.928V330.829H92.8619Z" fill="#2F2E41"/>
<path d="M100.528 244.132C100.528 244.132 102.783 259.895 110.674 271.38C110.674 271.38 114.733 280.838 114.056 283.765C113.38 286.692 113.38 302.681 120.144 316.867L126.457 337.584L129.614 345.015L135.025 347.267L143.818 347.943L138.858 337.584L136.378 332.18C136.378 332.18 131.868 322.947 131.868 314.841C131.868 306.734 128.937 287.593 128.937 287.593C128.937 287.593 128.937 244.358 124.202 241.655C119.467 238.953 100.528 244.132 100.528 244.132Z" fill="#FFB9B9"/>
<path d="M90.3817 188.962L88.127 188.512V198.645C88.127 198.645 87.2251 206.527 85.1959 208.103C83.1667 209.679 75.2752 240.755 77.9809 242.556C80.6865 244.358 116.987 253.815 125.781 244.132L119.693 214.633C119.693 214.633 120.144 194.367 119.693 194.367C119.242 194.367 90.3817 188.962 90.3817 188.962Z" fill="#3F3D56"/>
<path d="M111.801 143.475C111.801 143.475 100.528 135.818 89.2543 145.727C89.2543 145.727 85.1959 162.39 84.5195 166.444C83.8431 170.497 79.5591 187.161 82.7157 188.737C85.8723 190.313 85.8723 184.909 93.9892 186.035C102.106 187.161 119.467 186.71 119.467 185.359C119.467 184.008 115.409 173.199 116.987 171.398C118.566 169.596 121.271 161.039 118.566 156.761C115.86 152.482 111.801 143.475 111.801 143.475Z" fill="#FF6584"/>
<path d="M97.1458 188.962L119.693 199.546C119.693 199.546 128.712 211.03 130.741 204.5C132.77 197.97 123.977 193.241 123.977 193.241L108.87 184.684L97.1458 188.512L97.1458 188.962Z" fill="#FFB9B9"/>
<path opacity="0.1" d="M98.7241 145.727C98.7241 145.727 85.8723 185.359 97.5968 191.664C109.321 197.97 111.125 186.035 111.125 186.035C111.125 186.035 103.234 181.081 105.714 175.001C108.194 168.921 110.449 145.727 110.449 145.727L98.7241 145.727Z" fill="black"/>
<path d="M98.0477 144.376C98.0477 144.376 85.1959 184.008 96.9203 190.313C108.645 196.618 110.449 184.684 110.449 184.684C110.449 184.684 102.557 179.73 105.037 173.65C107.517 167.57 109.772 144.376 109.772 144.376L98.0477 144.376Z" fill="#FF6584"/>
<path d="M129.035 335.458C129.035 335.458 128.809 332.392 127.374 332.26C125.94 332.129 123.999 331.56 124.068 332.504C124.138 333.447 124.389 340.068 123.986 341.047C123.584 342.025 122.9 345.632 123.713 346.995C123.713 346.995 121.988 352.576 123.676 352.926C125.364 353.276 134.81 352.581 134.81 352.581L135.091 349.952C135.091 349.952 156.596 355.008 160.648 348.782C160.648 348.782 162.46 344.38 158.612 343.715C158.612 343.715 150.128 344.576 146.796 341.265C143.465 337.953 136.952 330.132 136.952 330.132C136.952 330.132 132.281 331.188 132.98 334.219L133.05 335.162L129.035 335.458Z" fill="#2F2E41"/>
<path d="M102.529 116.853C111.396 116.853 118.583 113.031 118.583 108.316C118.583 103.6 111.396 99.7781 102.529 99.7781C93.6627 99.7781 86.4751 103.6 86.4751 108.316C86.4751 113.031 93.6627 116.853 102.529 116.853Z" fill="#3F3D56"/>
<path d="M89.1855 122.683C90.4521 122.683 91.4789 121.099 91.4789 119.144C91.4789 117.189 90.4521 115.604 89.1855 115.604C87.9189 115.604 86.8921 117.189 86.8921 119.144C86.8921 121.099 87.9189 122.683 89.1855 122.683Z" fill="#FFB9B9"/>
<path d="M81.4712 96.4464C87.6892 96.4464 92.7299 91.4121 92.7299 85.202C92.7299 78.9918 87.6892 73.9575 81.4712 73.9575C75.2532 73.9575 70.2125 78.9918 70.2125 85.202C70.2125 91.4121 75.2532 96.4464 81.4712 96.4464Z" fill="#3F3D56"/>
</g>
<defs>
<clipPath id="clip0_226_29">
<rect width="607" height="363" fill="white"/>
</clipPath>
</defs>
</svg>
