<svg width="30" height="30" viewBox="0 0 30 30" fill="none" xmlns="http://www.w3.org/2000/svg">
<path d="M25.375 11.625L7.875 2.87501C6 2.00001 3.75 2.75001 2.875 4.50001C2.375 5.62501 2.375 6.75001 2.875 7.75001L5.875 14.5C6 14.875 6 15.25 5.875 15.5L2.875 22.25C2 24.125 2.875 26.375 4.75 27.25C5.25 27.375 5.75 27.5 6.25 27.5C6.875 27.5 7.375 27.375 7.875 27.125L25.375 18.375C27.25 17.5 28 15.25 27 13.375C26.75 12.625 26.125 12 25.375 11.625ZM8.25 13.75V13.625V13.5L5.125 6.75001C4.875 6.12501 5.125 5.37501 5.75 5.12501C6.125 5.00001 6.5 5.00001 6.75 5.12501L24.25 13.875C24.875 14.25 25.125 15 24.75 15.5C24.625 15.75 24.5 15.875 24.25 16L6.75 24.75C6.125 25 5.375 24.75 5.125 24.125C5 23.75 5 23.375 5.125 23.125L8.125 16.375V16.25C8.375 15.875 8.5 15 8.25 13.75Z" fill="white"/>
</svg>
