<svg width="507" height="507" viewBox="0 0 507 507" fill="none" xmlns="http://www.w3.org/2000/svg">
<g clip-path="url(#clip0_268_621)">
<path d="M507 253.5C507.088 313.339 485.922 371.265 447.274 416.951C445.87 418.617 444.441 420.257 442.985 421.889C425.849 441.16 405.889 457.719 383.785 471.001C378.715 474.045 373.534 476.913 368.242 479.606C367.707 479.878 367.163 480.15 366.628 480.413C365.987 480.738 365.338 481.054 364.689 481.369C351.297 487.924 337.348 493.273 323.006 497.351C321.515 497.772 320.021 498.182 318.524 498.579C299.658 503.571 280.279 506.364 260.772 506.904C259.754 506.93 258.754 506.948 257.789 506.965C257.447 506.974 257.114 506.983 256.781 506.983C255.684 506.991 254.596 507 253.5 507C232.943 507.015 212.46 504.532 192.502 499.606C190.502 499.114 188.511 498.597 186.529 498.053C176.087 495.202 165.84 491.677 155.854 487.501C150.591 485.308 145.422 482.942 140.346 480.405C139.197 479.826 138.048 479.247 136.916 478.65C136.434 478.413 135.96 478.159 135.486 477.913C108.433 463.635 84.1727 444.6 63.8662 421.722C62.4627 420.152 61.0856 418.556 59.726 416.951C37.3519 390.423 20.6624 359.584 10.6909 326.344C0.719465 293.104 -2.32153 258.171 1.75629 223.708C5.83411 189.245 16.9439 155.987 34.3976 125.992C51.8513 95.9972 75.2772 69.9051 103.224 49.3316C104.663 48.2703 106.11 47.2177 107.575 46.1914C107.865 45.9896 108.154 45.7879 108.444 45.5861C134.182 27.5569 163.072 14.5106 193.616 7.12255C195.353 6.69274 197.09 6.28925 198.844 5.91207C231.928 -1.32479 266.12 -1.92407 299.437 4.14897C301.183 4.47352 302.928 4.80684 304.665 5.16648C334.936 11.3755 363.807 23.0994 389.837 39.753C390.416 40.1214 390.995 40.4898 391.574 40.8758C392.741 41.6301 393.907 42.402 395.056 43.1827C429.538 66.3646 457.786 97.6753 477.308 134.353C496.831 171.032 507.028 211.95 507 253.5Z" fill="#F2F2F2"/>
<path d="M189.467 384.645L108.444 391.837L107.575 391.916V46.1914C107.865 45.9896 108.154 45.7879 108.444 45.5861C125.33 33.7749 143.596 24.0717 162.836 16.6924L166.977 73.7957L167.354 79.0236L171.45 135.653L172.713 153.074L189.318 382.627L189.467 384.645Z" fill="#CCCCCC"/>
<path d="M389.837 39.753C390.416 40.1214 390.995 40.4898 391.574 40.8757V391.916L389.837 391.758L309.691 384.645L309.84 382.627L326.445 153.074L327.708 135.653L331.804 79.0235L332.182 73.7957L336.523 13.9117C355.248 20.4022 373.142 29.0757 389.837 39.753Z" fill="#CCCCCC"/>
<path d="M389.837 39.7531V396.706C389.837 403.556 385.118 409.126 379.311 409.126H118.97C114.163 409.126 110.084 405.302 108.847 400.083C108.577 398.977 108.442 397.843 108.444 396.706V45.5862C108.154 45.788 107.865 45.9897 107.575 46.1914C106.11 47.2177 104.663 48.2703 103.224 49.3317V396.706C103.147 401.909 105.09 406.94 108.645 410.74C110.51 412.693 112.868 414.106 115.47 414.828C116.61 415.138 117.787 415.294 118.97 415.293H379.311C380.496 415.294 381.676 415.137 382.82 414.828C389.82 412.942 395.056 405.539 395.056 396.706V43.1827C393.907 42.4021 392.741 41.6302 391.574 40.8758C390.995 40.4899 390.416 40.1215 389.837 39.7531Z" fill="#CCCCCC"/>
<path d="M392.449 73.7992H105.834V79.0262H392.449V73.7992Z" fill="#CCCCCC"/>
<path d="M193.616 7.12258C195.353 6.69277 197.09 6.28929 198.844 5.91211V147.846H193.616V7.12258Z" fill="#CCCCCC"/>
<path d="M299.437 4.14893C301.183 4.47348 302.928 4.8068 304.665 5.16644V147.846H299.437V4.14893Z" fill="#CCCCCC"/>
<path d="M425.117 382.627H81.8744C75.635 382.627 69.6512 385.106 65.2393 389.518C60.8274 393.93 58.3488 399.913 58.3488 406.153C58.3488 412.392 60.8274 418.376 65.2393 422.788C69.6512 427.2 75.635 429.678 81.8744 429.678H425.117C428.458 429.679 431.76 428.966 434.804 427.588C437.848 426.21 440.562 424.198 442.765 421.687C443.763 420.552 444.65 419.324 445.414 418.021C446.006 417.021 446.52 415.977 446.949 414.898C448.382 411.329 448.918 407.463 448.509 403.639C448.1 399.815 446.76 396.149 444.604 392.964C442.449 389.778 439.546 387.17 436.148 385.368C432.751 383.566 428.963 382.625 425.117 382.627Z" fill="#CCCCCC"/>
<path d="M392.449 135.652H107.577V153.076H392.449V135.652Z" fill="#CCCCCC"/>
<path d="M247.399 130.425H252.626C253.885 130.425 255.131 130.673 256.294 131.155C257.456 131.636 258.513 132.342 259.402 133.232C260.292 134.122 260.998 135.178 261.48 136.341C261.961 137.504 262.209 138.75 262.209 140.008H237.816C237.816 137.467 238.826 135.029 240.623 133.232C242.42 131.435 244.858 130.425 247.399 130.425H247.399Z" fill="#CCCCCC"/>
<path d="M447.274 416.95C439.654 425.98 431.412 434.465 422.608 442.344H84.3918C75.5882 434.465 67.3461 425.98 59.726 416.95H447.274Z" fill="#3F3D56"/>
<path d="M281.815 328.997H224.869C224.563 328.994 224.257 329.042 223.966 329.138C223.348 329.329 222.807 329.713 222.423 330.234C222.04 330.755 221.833 331.385 221.834 332.032V421.994H284.859V332.032C284.858 331.633 284.779 331.238 284.626 330.869C284.473 330.501 284.248 330.166 283.966 329.884C283.683 329.602 283.348 329.379 282.978 329.227C282.609 329.075 282.214 328.997 281.815 328.997ZM260.263 373.382C260.265 374.841 259.784 376.26 258.895 377.417C258.046 378.54 256.866 379.368 255.522 379.785C254.178 380.202 252.737 380.186 251.402 379.74C250.067 379.295 248.905 378.441 248.081 377.301C247.257 376.16 246.811 374.789 246.807 373.382V362.944C246.824 361.17 247.54 359.475 248.8 358.227C250.06 356.978 251.761 356.278 253.535 356.278C255.309 356.278 257.011 356.978 258.27 358.227C259.53 359.475 260.246 361.17 260.263 362.944V373.382Z" fill="#2F2E41"/>
<path d="M221.641 419.117V427.792C221.641 428.242 221.819 428.674 222.137 428.993C222.454 429.312 222.885 429.492 223.334 429.494H283.359C283.808 429.49 284.238 429.31 284.555 428.991C284.872 428.672 285.05 428.242 285.052 427.792V419.117H221.641Z" fill="#3F3D56"/>
<path d="M376.11 188.607H132.697C130.606 188.61 128.601 189.441 127.121 190.92C125.641 192.398 124.808 194.402 124.803 196.493V360.751C124.804 362.844 125.637 364.851 127.117 366.331C128.597 367.811 130.604 368.643 132.697 368.645H376.11C378.203 368.643 380.21 367.811 381.69 366.331C383.17 364.851 384.003 362.844 384.004 360.751V196.493C383.999 194.402 383.166 192.398 381.686 190.92C380.206 189.441 378.201 188.61 376.11 188.607Z" fill="#3F3D56"/>
<path d="M374.075 194.309H134.723C133.604 194.312 132.531 194.758 131.74 195.551C130.949 196.343 130.504 197.417 130.504 198.537V358.725C130.506 359.843 130.951 360.915 131.742 361.706C132.533 362.497 133.605 362.942 134.723 362.944H374.075C375.193 362.942 376.265 362.497 377.056 361.706C377.847 360.915 378.292 359.843 378.294 358.725V198.537C378.294 197.417 377.85 196.343 377.059 195.551C376.268 194.758 375.195 194.312 374.075 194.309Z" fill="#FF6584"/>
<path d="M330.024 429.354L327.813 418.854C327.722 418.426 327.524 418.027 327.239 417.695C326.954 417.362 326.591 417.107 326.182 416.951C325.885 416.834 325.57 416.775 325.252 416.775H187.265C186.947 416.775 186.632 416.834 186.336 416.951C185.926 417.107 185.563 417.362 185.278 417.695C184.993 418.027 184.796 418.426 184.704 418.854L182.494 429.354C182.414 429.735 182.42 430.129 182.511 430.507C182.603 430.886 182.778 431.239 183.023 431.542C183.268 431.844 183.578 432.088 183.93 432.256C184.281 432.424 184.665 432.511 185.055 432.511H327.454C327.844 432.513 328.23 432.427 328.583 432.258C328.935 432.09 329.245 431.843 329.489 431.538C329.734 431.236 329.91 430.884 330.002 430.506C330.095 430.128 330.102 429.735 330.024 429.354Z" fill="#2F2E41"/>
<path d="M192.234 418.666H188.705C188.469 418.666 188.277 418.858 188.277 419.094V420.869C188.277 421.106 188.469 421.297 188.705 421.297H192.234C192.471 421.297 192.663 421.106 192.663 420.869V419.094C192.663 418.858 192.471 418.666 192.234 418.666Z" fill="#3F3D56"/>
<path d="M201.006 418.666H197.477C197.24 418.666 197.048 418.858 197.048 419.094V420.869C197.048 421.106 197.24 421.297 197.477 421.297H201.006C201.243 421.297 201.434 421.106 201.434 420.869V419.094C201.434 418.858 201.243 418.666 201.006 418.666Z" fill="#3F3D56"/>
<path d="M209.778 418.666H206.248C206.012 418.666 205.82 418.858 205.82 419.094V420.869C205.82 421.106 206.012 421.297 206.248 421.297H209.778C210.014 421.297 210.206 421.106 210.206 420.869V419.094C210.206 418.858 210.014 418.666 209.778 418.666Z" fill="#3F3D56"/>
<path d="M218.549 418.666H215.02C214.783 418.666 214.592 418.858 214.592 419.094V420.869C214.592 421.106 214.783 421.297 215.02 421.297H218.549C218.786 421.297 218.978 421.106 218.978 420.869V419.094C218.978 418.858 218.786 418.666 218.549 418.666Z" fill="#3F3D56"/>
<path d="M227.321 418.666H223.792C223.555 418.666 223.363 418.858 223.363 419.094V420.869C223.363 421.106 223.555 421.297 223.792 421.297H227.321C227.557 421.297 227.749 421.106 227.749 420.869V419.094C227.749 418.858 227.557 418.666 227.321 418.666Z" fill="#3F3D56"/>
<path d="M236.093 418.666H232.563C232.327 418.666 232.135 418.858 232.135 419.094V420.869C232.135 421.106 232.327 421.297 232.563 421.297H236.093C236.329 421.297 236.521 421.106 236.521 420.869V419.094C236.521 418.858 236.329 418.666 236.093 418.666Z" fill="#3F3D56"/>
<path d="M244.864 418.666H241.335C241.098 418.666 240.907 418.858 240.907 419.094V420.869C240.907 421.106 241.098 421.297 241.335 421.297H244.864C245.101 421.297 245.292 421.106 245.292 420.869V419.094C245.292 418.858 245.101 418.666 244.864 418.666Z" fill="#3F3D56"/>
<path d="M253.636 418.666H250.106C249.87 418.666 249.678 418.858 249.678 419.094V420.869C249.678 421.106 249.87 421.297 250.106 421.297H253.636C253.872 421.297 254.064 421.106 254.064 420.869V419.094C254.064 418.858 253.872 418.666 253.636 418.666Z" fill="#3F3D56"/>
<path d="M262.407 418.666H258.878C258.642 418.666 258.45 418.858 258.45 419.094V420.869C258.45 421.106 258.642 421.297 258.878 421.297H262.407C262.644 421.297 262.836 421.106 262.836 420.869V419.094C262.836 418.858 262.644 418.666 262.407 418.666Z" fill="#3F3D56"/>
<path d="M271.179 418.666H267.65C267.413 418.666 267.221 418.858 267.221 419.094V420.869C267.221 421.106 267.413 421.297 267.65 421.297H271.179C271.416 421.297 271.607 421.106 271.607 420.869V419.094C271.607 418.858 271.416 418.666 271.179 418.666Z" fill="#3F3D56"/>
<path d="M279.951 418.666H276.421C276.185 418.666 275.993 418.858 275.993 419.094V420.869C275.993 421.106 276.185 421.297 276.421 421.297H279.951C280.187 421.297 280.379 421.106 280.379 420.869V419.094C280.379 418.858 280.187 418.666 279.951 418.666Z" fill="#3F3D56"/>
<path d="M288.722 418.666H285.193C284.956 418.666 284.765 418.858 284.765 419.094V420.869C284.765 421.106 284.956 421.297 285.193 421.297H288.722C288.959 421.297 289.151 421.106 289.151 420.869V419.094C289.151 418.858 288.959 418.666 288.722 418.666Z" fill="#3F3D56"/>
<path d="M297.494 418.666H293.965C293.728 418.666 293.536 418.858 293.536 419.094V420.869C293.536 421.106 293.728 421.297 293.965 421.297H297.494C297.73 421.297 297.922 421.106 297.922 420.869V419.094C297.922 418.858 297.73 418.666 297.494 418.666Z" fill="#3F3D56"/>
<path d="M306.266 418.666H302.736C302.5 418.666 302.308 418.858 302.308 419.094V420.869C302.308 421.106 302.5 421.297 302.736 421.297H306.266C306.502 421.297 306.694 421.106 306.694 420.869V419.094C306.694 418.858 306.502 418.666 306.266 418.666Z" fill="#3F3D56"/>
<path d="M315.037 418.666H311.508C311.271 418.666 311.08 418.858 311.08 419.094V420.869C311.08 421.106 311.271 421.297 311.508 421.297H315.037C315.274 421.297 315.465 421.106 315.465 420.869V419.094C315.465 418.858 315.274 418.666 315.037 418.666Z" fill="#3F3D56"/>
<path d="M323.809 418.666H320.279C320.043 418.666 319.851 418.858 319.851 419.094V420.869C319.851 421.106 320.043 421.297 320.279 421.297H323.809C324.045 421.297 324.237 421.106 324.237 420.869V419.094C324.237 418.858 324.045 418.666 323.809 418.666Z" fill="#3F3D56"/>
<path d="M192.131 423.052H188.601C188.365 423.052 188.173 423.243 188.173 423.48V425.255C188.173 425.492 188.365 425.683 188.601 425.683H192.131C192.367 425.683 192.559 425.492 192.559 425.255V423.48C192.559 423.243 192.367 423.052 192.131 423.052Z" fill="#3F3D56"/>
<path d="M200.902 423.052H197.373C197.137 423.052 196.945 423.243 196.945 423.48V425.255C196.945 425.492 197.137 425.683 197.373 425.683H200.902C201.139 425.683 201.331 425.492 201.331 425.255V423.48C201.331 423.243 201.139 423.052 200.902 423.052Z" fill="#3F3D56"/>
<path d="M209.674 423.052H206.145C205.908 423.052 205.716 423.243 205.716 423.48V425.255C205.716 425.492 205.908 425.683 206.145 425.683H209.674C209.911 425.683 210.102 425.492 210.102 425.255V423.48C210.102 423.243 209.911 423.052 209.674 423.052Z" fill="#3F3D56"/>
<path d="M218.446 423.052H214.916C214.68 423.052 214.488 423.243 214.488 423.48V425.255C214.488 425.492 214.68 425.683 214.916 425.683H218.446C218.682 425.683 218.874 425.492 218.874 425.255V423.48C218.874 423.243 218.682 423.052 218.446 423.052Z" fill="#3F3D56"/>
<path d="M227.217 423.052H223.688C223.451 423.052 223.26 423.243 223.26 423.48V425.255C223.26 425.492 223.451 425.683 223.688 425.683H227.217C227.454 425.683 227.646 425.492 227.646 425.255V423.48C227.646 423.243 227.454 423.052 227.217 423.052Z" fill="#3F3D56"/>
<path d="M235.989 423.052H232.46C232.223 423.052 232.031 423.243 232.031 423.48V425.255C232.031 425.492 232.223 425.683 232.46 425.683H235.989C236.225 425.683 236.417 425.492 236.417 425.255V423.48C236.417 423.243 236.225 423.052 235.989 423.052Z" fill="#3F3D56"/>
<path d="M244.761 423.052H241.231C240.995 423.052 240.803 423.243 240.803 423.48V425.255C240.803 425.492 240.995 425.683 241.231 425.683H244.761C244.997 425.683 245.189 425.492 245.189 425.255V423.48C245.189 423.243 244.997 423.052 244.761 423.052Z" fill="#3F3D56"/>
<path d="M253.532 423.052H250.003C249.766 423.052 249.575 423.243 249.575 423.48V425.255C249.575 425.492 249.766 425.683 250.003 425.683H253.532C253.769 425.683 253.96 425.492 253.96 425.255V423.48C253.96 423.243 253.769 423.052 253.532 423.052Z" fill="#3F3D56"/>
<path d="M262.304 423.052H258.774C258.538 423.052 258.346 423.243 258.346 423.48V425.255C258.346 425.492 258.538 425.683 258.774 425.683H262.304C262.54 425.683 262.732 425.492 262.732 425.255V423.48C262.732 423.243 262.54 423.052 262.304 423.052Z" fill="#3F3D56"/>
<path d="M271.075 423.052H267.546C267.31 423.052 267.118 423.243 267.118 423.48V425.255C267.118 425.492 267.31 425.683 267.546 425.683H271.075C271.312 425.683 271.504 425.492 271.504 425.255V423.48C271.504 423.243 271.312 423.052 271.075 423.052Z" fill="#3F3D56"/>
<path d="M279.847 423.052H276.318C276.081 423.052 275.889 423.243 275.889 423.48V425.255C275.889 425.492 276.081 425.683 276.318 425.683H279.847C280.084 425.683 280.275 425.492 280.275 425.255V423.48C280.275 423.243 280.084 423.052 279.847 423.052Z" fill="#3F3D56"/>
<path d="M288.619 423.052H285.089C284.853 423.052 284.661 423.243 284.661 423.48V425.255C284.661 425.492 284.853 425.683 285.089 425.683H288.619C288.855 425.683 289.047 425.492 289.047 425.255V423.48C289.047 423.243 288.855 423.052 288.619 423.052Z" fill="#3F3D56"/>
<path d="M297.39 423.052H293.861C293.624 423.052 293.433 423.243 293.433 423.48V425.255C293.433 425.492 293.624 425.683 293.861 425.683H297.39C297.627 425.683 297.819 425.492 297.819 425.255V423.48C297.819 423.243 297.627 423.052 297.39 423.052Z" fill="#3F3D56"/>
<path d="M306.162 423.052H302.633C302.396 423.052 302.204 423.243 302.204 423.48V425.255C302.204 425.492 302.396 425.683 302.633 425.683H306.162C306.398 425.683 306.59 425.492 306.59 425.255V423.48C306.59 423.243 306.398 423.052 306.162 423.052Z" fill="#3F3D56"/>
<path d="M314.934 423.052H311.404C311.168 423.052 310.976 423.243 310.976 423.48V425.255C310.976 425.492 311.168 425.683 311.404 425.683H314.934C315.17 425.683 315.362 425.492 315.362 425.255V423.48C315.362 423.243 315.17 423.052 314.934 423.052Z" fill="#3F3D56"/>
<path d="M323.705 423.052H320.176C319.939 423.052 319.748 423.243 319.748 423.48V425.255C319.748 425.492 319.939 425.683 320.176 425.683H323.705C323.942 425.683 324.133 425.492 324.133 425.255V423.48C324.133 423.243 323.942 423.052 323.705 423.052Z" fill="#3F3D56"/>
<path d="M264.935 428.315H230.705C230.469 428.315 230.277 428.507 230.277 428.743V430.518C230.277 430.755 230.469 430.946 230.705 430.946H264.935C265.172 430.946 265.363 430.755 265.363 430.518V428.743C265.363 428.507 265.172 428.315 264.935 428.315Z" fill="#3F3D56"/>
<path d="M362.047 216.375H138.087C137.854 216.37 137.633 216.274 137.47 216.108C137.307 215.941 137.216 215.718 137.216 215.485C137.216 215.252 137.307 215.028 137.47 214.862C137.633 214.695 137.854 214.599 138.087 214.594H362.047C362.28 214.599 362.502 214.695 362.664 214.862C362.827 215.028 362.918 215.252 362.918 215.485C362.918 215.718 362.827 215.941 362.664 216.108C362.502 216.274 362.28 216.37 362.047 216.375Z" fill="#3F3D56"/>
<path d="M153.332 210.047C156.215 210.047 158.552 207.658 158.552 204.711C158.552 201.764 156.215 199.375 153.332 199.375C150.45 199.375 148.113 201.764 148.113 204.711C148.113 207.658 150.45 210.047 153.332 210.047Z" fill="#3F3D56"/>
<path d="M171.363 210.047C174.246 210.047 176.583 207.658 176.583 204.711C176.583 201.764 174.246 199.375 171.363 199.375C168.481 199.375 166.144 201.764 166.144 204.711C166.144 207.658 168.481 210.047 171.363 210.047Z" fill="#3F3D56"/>
<path d="M189.394 210.047C192.277 210.047 194.614 207.658 194.614 204.711C194.614 201.764 192.277 199.375 189.394 199.375C186.512 199.375 184.175 201.764 184.175 204.711C184.175 207.658 186.512 210.047 189.394 210.047Z" fill="#3F3D56"/>
<path d="M351.19 200.695H338.383C338.13 200.701 337.889 200.805 337.712 200.987C337.535 201.168 337.436 201.411 337.436 201.664C337.436 201.917 337.535 202.16 337.712 202.342C337.889 202.523 338.13 202.627 338.383 202.633H351.19C351.444 202.63 351.687 202.526 351.866 202.345C352.045 202.163 352.145 201.919 352.145 201.664C352.145 201.409 352.045 201.165 351.866 200.984C351.687 200.802 351.444 200.698 351.19 200.695Z" fill="#3F3D56"/>
<path d="M351.19 204.335H338.383C338.13 204.341 337.889 204.445 337.711 204.626C337.534 204.807 337.435 205.051 337.435 205.304C337.435 205.558 337.534 205.801 337.711 205.982C337.889 206.163 338.13 206.268 338.383 206.273H351.19C351.445 206.27 351.688 206.167 351.867 205.985C352.047 205.804 352.147 205.559 352.147 205.304C352.147 205.049 352.047 204.804 351.867 204.623C351.688 204.441 351.445 204.338 351.19 204.335Z" fill="#3F3D56"/>
<path d="M351.19 207.975H338.383C338.13 207.981 337.889 208.086 337.712 208.267C337.535 208.448 337.436 208.691 337.436 208.945C337.436 209.198 337.535 209.441 337.712 209.622C337.889 209.803 338.13 209.908 338.383 209.914H351.19C351.444 209.91 351.687 209.807 351.866 209.625C352.045 209.444 352.145 209.199 352.145 208.945C352.145 208.69 352.045 208.445 351.866 208.264C351.687 208.083 351.444 207.979 351.19 207.975Z" fill="#3F3D56"/>
<path d="M157.398 237.074H152.797C151.401 237.074 150.27 238.205 150.27 239.6C150.27 240.995 151.401 242.126 152.797 242.126H157.398C158.793 242.126 159.924 240.995 159.924 239.6C159.924 238.205 158.793 237.074 157.398 237.074Z" fill="#E6E6E6"/>
<path d="M210.028 237.074H205.426C204.031 237.074 202.9 238.205 202.9 239.6C202.9 240.995 204.031 242.126 205.426 242.126H210.028C211.423 242.126 212.554 240.995 212.554 239.6C212.554 238.205 211.423 237.074 210.028 237.074Z" fill="#E6E6E6"/>
<path d="M224.94 237.074H220.338C218.943 237.074 217.812 238.205 217.812 239.6C217.812 240.995 218.943 242.126 220.338 242.126H224.94C226.335 242.126 227.466 240.995 227.466 239.6C227.466 238.205 226.335 237.074 224.94 237.074Z" fill="#E6E6E6"/>
<path d="M195.713 236.652H167.112C165.717 236.652 164.586 237.783 164.586 239.179C164.586 240.574 165.717 241.705 167.112 241.705H195.713C197.108 241.705 198.239 240.574 198.239 239.179C198.239 237.783 197.108 236.652 195.713 236.652Z" fill="#E6E6E6"/>
<path d="M265.886 236.652H237.285C235.89 236.652 234.759 237.783 234.759 239.179C234.759 240.574 235.89 241.705 237.285 241.705H265.886C267.281 241.705 268.412 240.574 268.412 239.179C268.412 237.783 267.281 236.652 265.886 236.652Z" fill="#E6E6E6"/>
<path d="M171.433 248.477H166.831C165.436 248.477 164.305 249.608 164.305 251.003C164.305 252.398 165.436 253.529 166.831 253.529H171.433C172.828 253.529 173.959 252.398 173.959 251.003C173.959 249.608 172.828 248.477 171.433 248.477Z" fill="#E6E6E6"/>
<path d="M224.063 248.477H219.461C218.066 248.477 216.935 249.608 216.935 251.003C216.935 252.398 218.066 253.529 219.461 253.529H224.063C225.458 253.529 226.589 252.398 226.589 251.003C226.589 249.608 225.458 248.477 224.063 248.477Z" fill="#E6E6E6"/>
<path d="M238.974 248.477H234.373C232.977 248.477 231.846 249.608 231.846 251.003C231.846 252.398 232.977 253.529 234.373 253.529H238.974C240.37 253.529 241.501 252.398 241.501 251.003C241.501 249.608 240.37 248.477 238.974 248.477Z" fill="#E6E6E6"/>
<path d="M209.747 248.056H181.147C179.751 248.056 178.62 249.187 178.62 250.582C178.62 251.977 179.751 253.108 181.147 253.108H209.747C211.142 253.108 212.273 251.977 212.273 250.582C212.273 249.187 211.142 248.056 209.747 248.056Z" fill="#E6E6E6"/>
<path d="M279.92 248.056H251.32C249.924 248.056 248.793 249.187 248.793 250.582C248.793 251.977 249.924 253.108 251.32 253.108H279.92C281.315 253.108 282.446 251.977 282.446 250.582C282.446 249.187 281.315 248.056 279.92 248.056Z" fill="#E6E6E6"/>
<path d="M185.467 259.88H180.866C179.471 259.88 178.34 261.011 178.34 262.406C178.34 263.801 179.471 264.932 180.866 264.932H185.467C186.863 264.932 187.994 263.801 187.994 262.406C187.994 261.011 186.863 259.88 185.467 259.88Z" fill="#E6E6E6"/>
<path d="M238.097 259.88H233.495C232.1 259.88 230.969 261.011 230.969 262.406C230.969 263.801 232.1 264.932 233.495 264.932H238.097C239.492 264.932 240.623 263.801 240.623 262.406C240.623 261.011 239.492 259.88 238.097 259.88Z" fill="#E6E6E6"/>
<path d="M253.009 259.88H248.407C247.012 259.88 245.881 261.011 245.881 262.406C245.881 263.801 247.012 264.932 248.407 264.932H253.009C254.404 264.932 255.535 263.801 255.535 262.406C255.535 261.011 254.404 259.88 253.009 259.88Z" fill="#E6E6E6"/>
<path d="M223.782 259.459H195.181C193.786 259.459 192.655 260.59 192.655 261.985C192.655 263.38 193.786 264.511 195.181 264.511H223.782C225.177 264.511 226.308 263.38 226.308 261.985C226.308 260.59 225.177 259.459 223.782 259.459Z" fill="#E6E6E6"/>
<path d="M293.955 259.459H265.354C263.959 259.459 262.828 260.59 262.828 261.985C262.828 263.38 263.959 264.511 265.354 264.511H293.955C295.35 264.511 296.481 263.38 296.481 261.985C296.481 260.59 295.35 259.459 293.955 259.459Z" fill="#E6E6E6"/>
<path d="M199.502 271.283H194.9C193.505 271.283 192.374 272.414 192.374 273.809C192.374 275.204 193.505 276.335 194.9 276.335H199.502C200.897 276.335 202.028 275.204 202.028 273.809C202.028 272.414 200.897 271.283 199.502 271.283Z" fill="#E6E6E6"/>
<path d="M252.132 271.283H247.53C246.135 271.283 245.004 272.414 245.004 273.809C245.004 275.204 246.135 276.335 247.53 276.335H252.132C253.527 276.335 254.658 275.204 254.658 273.809C254.658 272.414 253.527 271.283 252.132 271.283Z" fill="#E6E6E6"/>
<path d="M267.044 271.283H262.442C261.047 271.283 259.916 272.414 259.916 273.809C259.916 275.204 261.047 276.335 262.442 276.335H267.044C268.439 276.335 269.57 275.204 269.57 273.809C269.57 272.414 268.439 271.283 267.044 271.283Z" fill="#E6E6E6"/>
<path d="M237.816 270.862H209.216C207.821 270.862 206.69 271.993 206.69 273.388C206.69 274.783 207.821 275.914 209.216 275.914H237.816C239.212 275.914 240.343 274.783 240.343 273.388C240.343 271.993 239.212 270.862 237.816 270.862Z" fill="#E6E6E6"/>
<path d="M210.028 316.626H205.426C204.031 316.626 202.9 317.757 202.9 319.153C202.9 320.548 204.031 321.679 205.426 321.679H210.028C211.423 321.679 212.554 320.548 212.554 319.153C212.554 317.757 211.423 316.626 210.028 316.626Z" fill="#E6E6E6"/>
<path d="M224.94 316.626H220.338C218.943 316.626 217.812 317.757 217.812 319.153C217.812 320.548 218.943 321.679 220.338 321.679H224.94C226.335 321.679 227.466 320.548 227.466 319.153C227.466 317.757 226.335 316.626 224.94 316.626Z" fill="#E6E6E6"/>
<path d="M265.886 317.048H237.285C235.89 317.048 234.759 318.179 234.759 319.574C234.759 320.969 235.89 322.1 237.285 322.1H265.886C267.281 322.1 268.412 320.969 268.412 319.574C268.412 318.179 267.281 317.048 265.886 317.048Z" fill="#E6E6E6"/>
<path d="M157.398 316.626H152.797C151.401 316.626 150.27 317.757 150.27 319.153C150.27 320.548 151.401 321.679 152.797 321.679H157.398C158.793 321.679 159.924 320.548 159.924 319.153C159.924 317.757 158.793 316.626 157.398 316.626Z" fill="#E6E6E6"/>
<path d="M195.713 317.048H167.112C165.717 317.048 164.586 318.179 164.586 319.574C164.586 320.969 165.717 322.1 167.112 322.1H195.713C197.108 322.1 198.239 320.969 198.239 319.574C198.239 318.179 197.108 317.048 195.713 317.048Z" fill="#E6E6E6"/>
<path d="M171.433 305.223H166.831C165.436 305.223 164.305 306.354 164.305 307.75C164.305 309.145 165.436 310.276 166.831 310.276H171.433C172.828 310.276 173.959 309.145 173.959 307.75C173.959 306.354 172.828 305.223 171.433 305.223Z" fill="#E6E6E6"/>
<path d="M224.063 305.223H219.461C218.066 305.223 216.935 306.354 216.935 307.75C216.935 309.145 218.066 310.276 219.461 310.276H224.063C225.458 310.276 226.589 309.145 226.589 307.75C226.589 306.354 225.458 305.223 224.063 305.223Z" fill="#E6E6E6"/>
<path d="M238.974 305.223H234.373C232.977 305.223 231.846 306.354 231.846 307.75C231.846 309.145 232.977 310.276 234.373 310.276H238.974C240.37 310.276 241.501 309.145 241.501 307.75C241.501 306.354 240.37 305.223 238.974 305.223Z" fill="#E6E6E6"/>
<path d="M209.747 305.645H181.147C179.751 305.645 178.62 306.776 178.62 308.171C178.62 309.566 179.751 310.697 181.147 310.697H209.747C211.142 310.697 212.273 309.566 212.273 308.171C212.273 306.776 211.142 305.645 209.747 305.645Z" fill="#E6E6E6"/>
<path d="M185.467 293.82H180.866C179.471 293.82 178.34 294.951 178.34 296.347C178.34 297.742 179.471 298.873 180.866 298.873H185.467C186.863 298.873 187.994 297.742 187.994 296.347C187.994 294.951 186.863 293.82 185.467 293.82Z" fill="#E6E6E6"/>
<path d="M238.097 293.82H233.495C232.1 293.82 230.969 294.951 230.969 296.347C230.969 297.742 232.1 298.873 233.495 298.873H238.097C239.492 298.873 240.623 297.742 240.623 296.347C240.623 294.951 239.492 293.82 238.097 293.82Z" fill="#E6E6E6"/>
<path d="M253.009 293.82H248.407C247.012 293.82 245.881 294.951 245.881 296.347C245.881 297.742 247.012 298.873 248.407 298.873H253.009C254.404 298.873 255.535 297.742 255.535 296.347C255.535 294.951 254.404 293.82 253.009 293.82Z" fill="#E6E6E6"/>
<path d="M223.782 294.241H195.181C193.786 294.241 192.655 295.372 192.655 296.768C192.655 298.163 193.786 299.294 195.181 299.294H223.782C225.177 299.294 226.308 298.163 226.308 296.768C226.308 295.372 225.177 294.241 223.782 294.241Z" fill="#E6E6E6"/>
<path d="M199.502 282.417H194.9C193.505 282.417 192.374 283.548 192.374 284.943C192.374 286.339 193.505 287.47 194.9 287.47H199.502C200.897 287.47 202.028 286.339 202.028 284.943C202.028 283.548 200.897 282.417 199.502 282.417Z" fill="#E6E6E6"/>
<path d="M252.132 282.417H247.53C246.135 282.417 245.004 283.548 245.004 284.943C245.004 286.339 246.135 287.47 247.53 287.47H252.132C253.527 287.47 254.658 286.339 254.658 284.943C254.658 283.548 253.527 282.417 252.132 282.417Z" fill="#E6E6E6"/>
<path d="M267.044 282.417H262.442C261.047 282.417 259.916 283.548 259.916 284.943C259.916 286.339 261.047 287.47 262.442 287.47H267.044C268.439 287.47 269.57 286.339 269.57 284.943C269.57 283.548 268.439 282.417 267.044 282.417Z" fill="#E6E6E6"/>
<path d="M237.816 282.838H209.216C207.821 282.838 206.69 283.969 206.69 285.365C206.69 286.76 207.821 287.891 209.216 287.891H237.816C239.212 287.891 240.343 286.76 240.343 285.365C240.343 283.969 239.212 282.838 237.816 282.838Z" fill="#E6E6E6"/>
<path d="M364.733 481.361C364.198 481.633 363.654 481.904 363.119 482.168C349.26 489.097 338.173 493.036 323.006 497.351C321.726 483.054 320.489 457.923 319.287 442.344C318.971 438.301 318.656 434.906 318.349 432.511C318.271 431.238 318.011 429.983 317.577 428.783L317.629 432.511L317.761 442.344L318.524 498.579C299.658 503.571 280.279 506.364 260.772 506.904C259.754 506.93 258.754 506.947 257.789 506.965C257.447 506.974 257.114 506.983 256.781 506.983C255.684 506.991 254.596 507 253.5 507C232.943 507.015 212.46 504.532 192.502 499.606C192.932 485.457 193.362 460.607 193.774 442.344C193.862 438.774 193.941 435.45 194.028 432.511C194.195 426.231 194.37 421.705 194.537 420.187C194.389 420.456 194.275 420.742 194.195 421.038C193.383 424.82 192.829 428.654 192.537 432.511C192.23 435.45 191.923 438.774 191.616 442.344C189.985 461.317 188.283 487.115 186.529 498.053C176.087 495.202 165.84 491.677 155.854 487.501C150.591 485.308 145.422 482.942 140.346 480.404C141.311 474.089 142.32 467.01 143.355 459.668C144.162 453.976 144.995 448.125 145.846 442.344C147.162 433.415 148.512 424.661 149.881 416.951C151.881 405.688 153.933 396.635 155.968 392.478C157.898 388.53 159.828 384.636 161.696 380.908C162.345 379.601 162.994 378.311 163.626 377.057C163.775 376.759 163.924 376.469 164.073 376.18C165.415 373.54 166.714 371.014 167.95 368.645C169.012 366.619 170.02 364.707 170.977 362.944C173.292 358.663 175.257 355.251 176.713 353.093C182.801 343.859 191.863 336.985 202.396 333.611L202.66 333.541L202.844 333.62L220.782 328.111L223.405 327.304L225.168 326.761L231.378 322.033L234.755 319.463L237.922 317.05L244.114 312.34L282.455 314.7L289.92 332.673L306.638 338.787L306.928 338.655L307.182 338.55L307.445 338.62C317.977 341.996 327.039 348.87 333.129 358.102C333.953 359.338 334.953 360.97 336.085 362.944C337.05 364.619 338.102 366.531 339.243 368.645C340.865 371.654 342.637 375.049 344.514 378.724C344.927 379.531 345.348 380.355 345.769 381.189C346.549 382.732 347.342 384.308 348.146 385.916C350.014 389.644 351.944 393.539 353.874 397.495C355.549 400.925 357.242 407.977 358.909 416.951C360.286 424.406 361.654 433.196 362.979 442.344C364.715 454.204 362.865 468.405 364.435 479.317C364.531 480.01 364.636 480.685 364.733 481.361Z" fill="#3F3D56"/>
<path d="M254.04 297.994C278.667 297.994 298.631 278.029 298.631 253.402C298.631 228.774 278.667 208.81 254.04 208.81C229.412 208.81 209.448 228.774 209.448 253.402C209.448 278.029 229.412 297.994 254.04 297.994Z" fill="#A0616A"/>
<path d="M327.576 194.309C326.695 192.251 325.522 190.331 324.094 188.608C317.322 180.336 305.007 176.696 292.367 186.485C289.934 185.941 287.398 186.087 285.043 186.906C283.931 187.308 282.889 187.883 281.955 188.608C280.041 190.101 278.548 192.065 277.622 194.309C277.127 195.494 276.802 196.743 276.657 198.02C273.533 196.396 270.226 195.151 266.807 194.309C258.417 192.222 249.644 192.222 241.255 194.309C238.566 194.989 235.978 196.015 233.553 197.362C229.448 199.73 227.089 202.721 226.668 206.046C220.747 206.379 214.589 209.493 210.001 214.598C209.484 215.168 208.984 215.765 208.519 216.379C204.661 221.427 202.588 227.612 202.625 233.966V235.08H203.739C206.791 235.077 209.814 235.666 212.642 236.816C214.474 237.552 216.209 238.51 217.808 239.667C218.855 240.41 219.843 241.231 220.764 242.123C222.901 244.192 224.711 246.572 226.133 249.184C229.777 255.785 231.04 263.438 229.711 270.859C229.406 272.577 228.961 274.267 228.378 275.912C227.549 278.258 226.458 280.503 225.124 282.604C225.071 282.683 225.027 282.762 224.975 282.841C224.387 283.78 223.826 284.736 223.299 285.701C222.905 286.42 222.536 287.157 222.194 287.894C221.194 289.944 220.35 292.067 219.668 294.244C218.447 298.095 217.728 302.087 217.528 306.121C217.466 307.191 217.449 308.261 217.484 309.331C217.536 312.09 217.838 314.838 218.387 317.542C218.466 317.91 218.545 318.27 218.624 318.638L219.264 321.436L220.782 328.112L221.834 332.708L222.808 336.971L224.247 334.91C224.738 334.208 225.975 332.05 227.632 328.997C228.729 327.006 230.001 324.629 231.378 322.033C233.299 318.393 235.404 314.331 237.465 310.279C238.299 308.639 239.123 307.007 239.922 305.411C241.43 302.384 242.851 299.463 244.071 296.867C245.193 294.472 246.149 292.35 246.86 290.648C247.079 291.762 247.263 292.893 247.404 294.034C247.562 295.192 247.676 296.367 247.737 297.542C247.755 297.718 247.763 297.902 247.772 298.078L247.807 298.797L247.816 299.007L248.746 299.13C254.108 299.704 259.515 299.745 264.886 299.253H264.894C272.009 298.717 278.99 297.026 285.56 294.244C289.292 292.625 292.777 290.487 295.911 287.894C297.375 286.681 298.742 285.356 299.998 283.929C300.314 283.569 300.621 283.21 300.919 282.841C302.655 280.708 304.142 278.383 305.349 275.912C306.158 274.281 306.844 272.592 307.402 270.859C310.77 260.658 310.577 247.93 306.823 232.808C307.837 232.613 308.808 232.238 309.691 231.703C312.445 230.045 314.358 226.756 314.954 222.738L315.901 222.992C319.26 221.428 322.251 219.175 324.682 216.379C325.163 215.809 325.614 215.215 326.033 214.598C330.322 208.282 330.357 200.704 327.576 194.309Z" fill="#2F2E41"/>
<path opacity="0.2" d="M180.976 416.912L188.429 388.148L195.011 412.968L180.976 416.912Z" fill="black"/>
<path d="M379.311 398.17C376.645 434.906 379.408 451.081 364.689 481.369C351.297 487.924 337.348 493.272 323.006 497.351C321.515 497.772 320.021 498.182 318.524 498.579C299.659 503.571 280.279 506.364 260.772 506.903C259.754 506.93 258.754 506.947 257.789 506.965C257.447 506.974 257.114 506.982 256.781 506.982C255.684 506.991 254.596 507 253.5 507C232.943 507.015 212.46 504.532 192.502 499.605C190.502 499.114 188.511 498.597 186.529 498.053C176.087 495.202 165.84 491.677 155.854 487.501C150.591 485.308 145.422 482.942 140.346 480.404C139.197 479.825 138.048 479.247 136.916 478.65C131.101 468.422 127.794 455.984 127.724 441.037C131.75 415.284 370.417 375.961 379.311 398.17Z" fill="#2F2E41"/>
<path opacity="0.2" d="M379.305 404.462C379.441 402.187 379.593 399.838 379.771 397.392C370.876 375.182 132.209 414.505 128.183 440.259C128.194 442.62 128.295 444.911 128.465 447.148C138.215 421.73 364.952 384.356 379.305 404.462Z" fill="black"/>
<path d="M143.061 300.123C143.119 299.327 143.007 298.529 142.73 297.781C142.454 297.033 142.02 296.353 141.459 295.786C140.898 295.22 140.222 294.78 139.477 294.497C138.731 294.214 137.934 294.093 137.138 294.144C136.842 294.155 136.547 294.192 136.256 294.254L101.379 302.134C100.599 302.323 99.8681 302.673 99.2323 303.162C98.5964 303.65 98.07 304.267 97.6869 304.971C97.1754 304.991 96.6674 305.064 96.1717 305.192C95.0863 305.438 94.06 305.895 93.1514 306.538C92.2428 307.18 91.4697 307.996 90.8762 308.937C90.2827 309.878 89.8804 310.928 89.6923 312.024C89.5043 313.121 89.5341 314.244 89.7801 315.33C90.0261 316.415 90.4835 317.442 91.1262 318.35C91.7688 319.259 92.5841 320.032 93.5255 320.625C95.4268 321.824 97.7264 322.218 99.9184 321.721C101.166 321.432 102.333 320.867 103.335 320.069L115.153 353.349C115.744 354.391 116.656 355.215 117.753 355.697C118.851 356.179 120.074 356.292 121.242 356.021L143.915 350.897C145.074 350.625 146.116 349.994 146.893 349.093C147.67 348.192 148.142 347.068 148.24 345.883L143.061 300.123ZM99.3949 319.352C97.8295 319.705 96.1878 319.423 94.83 318.568C93.4721 317.712 92.5089 316.354 92.1515 314.789C91.7942 313.225 92.0718 311.582 92.9235 310.222C93.7752 308.862 95.1316 307.895 96.6951 307.533C96.8052 307.506 96.9156 307.533 97.0257 307.506C97.0174 308.51 97.274 309.498 97.7696 310.371L102.095 317.92C101.342 318.634 100.408 319.129 99.3949 319.352Z" fill="#2F2E41"/>
<path d="M137.138 294.144C137.469 298.552 129.92 303.621 119.809 305.633C110.525 307.534 102.205 306.211 99.8632 302.74C100.334 302.461 100.845 302.256 101.379 302.134L136.256 294.255C136.547 294.192 136.842 294.156 137.138 294.144Z" fill="#3F3D56"/>
<path d="M113.017 406.043L132.607 396.248L116.282 352.17L111.979 329.941C111.42 327.053 110.113 324.362 108.188 322.138C106.264 319.913 103.789 318.233 101.011 317.264C98.2339 316.296 95.2508 316.073 92.3603 316.619C89.4697 317.164 86.773 318.459 84.5396 320.373C81.2299 323.21 79.1519 327.222 78.744 331.562C78.336 335.902 79.6302 340.23 82.3532 343.634L98.3239 363.598L113.017 406.043Z" fill="#A0616A"/>
<path d="M132.607 388.085L106.486 401.146L126.309 463.257C127.733 467.717 130.284 471.733 133.717 474.917C137.15 478.101 141.347 480.344 145.901 481.428C151.517 482.765 157.413 482.279 162.734 480.04C168.055 477.801 172.524 473.925 175.494 468.975L228.058 378.878C231.783 372.67 232.933 365.251 231.262 358.207C229.591 351.162 225.232 345.05 219.115 341.176C215.825 339.093 212.134 337.725 208.281 337.163C204.428 336.6 200.499 336.856 196.751 337.912C193.003 338.968 189.52 340.802 186.527 343.293C183.535 345.785 181.101 348.879 179.383 352.373L147.3 420.736L132.607 388.085Z" fill="#3F3D56"/>
<path d="M124.528 331.955C124.479 331.955 124.431 331.947 124.385 331.931L118.683 329.967C118.614 329.944 118.552 329.903 118.502 329.85C118.453 329.796 118.418 329.731 118.4 329.661C118.382 329.59 118.382 329.516 118.4 329.446C118.418 329.375 118.453 329.31 118.502 329.256L122.744 324.639C122.783 324.596 122.829 324.561 122.882 324.537C122.934 324.512 122.991 324.498 123.048 324.496C123.106 324.493 123.163 324.502 123.218 324.522C123.272 324.541 123.322 324.571 123.364 324.611C123.407 324.65 123.441 324.697 123.466 324.749C123.49 324.801 123.504 324.858 123.506 324.916C123.508 324.973 123.499 325.031 123.479 325.085C123.459 325.139 123.429 325.189 123.39 325.231L119.601 329.356L124.671 331.102C124.769 331.135 124.852 331.203 124.905 331.292C124.958 331.381 124.978 331.486 124.961 331.589C124.943 331.691 124.891 331.784 124.811 331.851C124.732 331.918 124.632 331.955 124.528 331.955Z" fill="#FF6584"/>
<path d="M132.345 330.354C132.258 330.354 132.172 330.328 132.1 330.28C132.027 330.231 131.971 330.161 131.938 330.08C131.906 329.999 131.898 329.91 131.916 329.825C131.934 329.74 131.977 329.661 132.04 329.601L135.895 325.874L130.717 323.74C130.663 323.718 130.615 323.686 130.574 323.645C130.533 323.605 130.5 323.556 130.478 323.503C130.456 323.45 130.445 323.393 130.444 323.335C130.444 323.278 130.456 323.22 130.478 323.167C130.499 323.114 130.532 323.065 130.572 323.025C130.613 322.984 130.662 322.952 130.715 322.929C130.768 322.907 130.825 322.896 130.883 322.896C130.94 322.896 130.997 322.907 131.051 322.929L136.848 325.318C136.915 325.346 136.975 325.39 137.021 325.447C137.067 325.503 137.098 325.57 137.112 325.641C137.126 325.713 137.121 325.787 137.099 325.856C137.077 325.926 137.038 325.988 136.986 326.039L132.65 330.231C132.568 330.31 132.459 330.354 132.345 330.354Z" fill="#FF6584"/>
<path d="M125.725 334.638C125.681 334.638 125.638 334.631 125.596 334.618C125.541 334.601 125.49 334.573 125.445 334.537C125.401 334.5 125.364 334.455 125.337 334.404C125.31 334.353 125.294 334.297 125.288 334.24C125.283 334.183 125.289 334.125 125.306 334.07L129.354 320.912C129.388 320.801 129.465 320.709 129.568 320.655C129.671 320.601 129.791 320.59 129.902 320.624C130.013 320.658 130.106 320.735 130.16 320.837C130.215 320.94 130.226 321.06 130.192 321.171L126.144 334.328C126.117 334.418 126.061 334.496 125.986 334.552C125.91 334.608 125.819 334.638 125.725 334.638Z" fill="#FF6584"/>
</g>
<defs>
<clipPath id="clip0_268_621">
<rect width="507" height="507" fill="white"/>
</clipPath>
</defs>
</svg>
