<svg width="1440" height="210" viewBox="0 0 1440 210" fill="none" xmlns="http://www.w3.org/2000/svg">
<path opacity="0.25" d="M1446 0V106.841C1388.41 158.08 1321.17 181.091 1255.61 171.467C1170.83 159.072 1091.33 94.5849 1006.42 84.914C917.439 74.8508 828.63 123.874 743.485 166.297C660.015 207.842 576.833 223.722 491.158 196.486C447.597 182.638 406.989 155.31 365.296 128.767C253.665 57.7018 104.835 -32.9824 -5.14984e-05 121.105V0H1446Z" fill="#3F3D56"/>
<path opacity="0.5" d="M1446 0V30.1857C1430.33 70.4906 1412.69 108.562 1388.53 137.563C1326.21 212.445 1247.17 211.93 1175.38 174.852C1137.85 155.473 1102.97 125.077 1067.33 98.8624C1018.02 62.5861 965.229 11.0356 909.679 4.02858C865.985 -1.41287 824.244 22.014 790.866 64.2854C752.583 112.762 715.77 182.661 665.991 203.663C617.261 224.264 567.965 190.89 522.44 157.305C476.915 123.721 431.872 82.8436 381.551 75.111C309.577 63.9417 245.049 118.795 178.027 149.267C141.636 165.802 106.932 161.048 73.0832 134.948C46.0551 114.156 15.2432 83.5309 -5.14984e-05 40.9349V0H1446Z" fill="#3F3D56"/>
<path d="M1446 0V13.0053C1265.33 136.29 1067.52 164.749 872.625 98.3368C820.81 80.6884 771.128 51.8596 718.855 37.2142C647.76 17.2788 583.316 65.4886 519.355 118.988C448.344 178.378 378.37 220.005 299.804 207.9C195.535 191.73 91.9896 102.31 -5.14984e-05 11.9889V0H1446Z" fill="#3F3D56"/>
</svg>
