<svg width="1440" height="210" viewBox="0 0 1440 210" fill="none" xmlns="http://www.w3.org/2000/svg">
<path opacity="0.25" d="M-3 210V103.159C54.587 51.92 121.826 28.9085 187.39 38.5332C272.174 50.9275 351.668 115.415 436.584 125.086C525.561 135.149 614.37 86.1257 699.515 43.7033C782.985 2.15793 866.167 -13.7216 951.842 13.5137C995.403 27.3621 1036.01 54.6897 1077.7 81.2325C1189.34 152.298 1338.17 242.982 1443 88.8954V210H-3Z" fill="#3F3D56"/>
<path opacity="0.5" d="M-3 210V179.814C12.665 139.509 30.3062 101.438 54.4665 72.4365C116.789 -2.44539 195.825 -1.92988 267.619 35.1483C305.155 54.5275 340.027 84.9232 375.671 111.138C424.98 147.414 477.771 198.964 533.321 205.971C577.015 211.413 618.756 187.986 652.134 145.715C690.417 97.238 727.23 27.3394 777.009 6.3373C825.739 -14.2638 875.035 19.1104 920.56 52.6946C966.085 86.2788 1011.13 127.156 1061.45 134.889C1133.42 146.058 1197.95 91.2047 1264.97 60.7326C1301.36 44.1983 1336.07 48.9524 1369.92 75.0522C1396.94 95.8443 1427.76 126.469 1443 169.065V210H-3Z" fill="#3F3D56"/>
<path d="M-3 210V196.995C177.666 73.7098 375.478 45.2506 570.375 111.663C622.19 129.312 671.872 158.14 724.145 172.786C795.24 192.721 859.684 144.511 923.645 91.0117C994.656 31.6216 1064.63 -10.0047 1143.2 2.0997C1247.46 18.2697 1351.01 107.69 1443 198.011V210H-3Z" fill="#3F3D56"/>
</svg>
