<svg width="72" height="72" viewBox="0 0 72 72" fill="none" xmlns="http://www.w3.org/2000/svg">
<path d="M33.309 31.3138C32.3913 31.8436 31.6513 32.6337 31.1826 33.5841C30.7139 34.5345 30.5376 35.6025 30.6759 36.6532C30.8142 37.7038 31.261 38.6898 31.9597 39.4865C32.6584 40.2832 33.5777 40.8548 34.6013 41.129C35.6249 41.4033 36.7068 41.3678 37.7102 41.0272C38.7137 40.6865 39.5935 40.056 40.2386 39.2152C40.8837 38.3745 41.2649 37.3614 41.3342 36.304C41.4035 35.2465 41.1576 34.1923 40.6277 33.2746C39.9171 32.0442 38.7469 31.1463 37.3744 30.7786C36.0019 30.4109 34.5396 30.6034 33.309 31.3138V31.3138ZM57.3231 37.1268C56.9714 36.7248 56.6002 36.3218 56.2096 35.9176C56.4824 35.6309 56.7464 35.3444 57.0016 35.0581C61.8191 29.6453 63.8523 24.217 61.9684 20.9535C60.1618 17.8245 54.7881 16.892 48.0606 18.2001C47.3979 18.3298 46.7389 18.476 46.0836 18.6389C45.9581 18.2064 45.8247 17.7764 45.6833 17.3489C43.401 10.4713 39.7143 5.99763 35.9462 6C32.3329 6.00165 28.8408 10.1913 26.613 16.6725C26.3938 17.3119 26.1911 17.9566 26.0047 18.6066C25.5666 18.4991 25.1266 18.3998 24.6847 18.3087C17.5867 16.8514 11.8697 17.8112 9.9894 21.0765C8.1864 24.2078 10.072 29.326 14.5749 34.4929C15.0215 35.0041 15.4807 35.5039 15.9526 35.9921C15.3963 36.5651 14.8696 37.1378 14.3786 37.7073C9.98484 42.8013 8.20707 47.8358 10.0072 50.9535C11.8662 54.1739 17.5028 55.2266 24.3634 53.8766C24.9194 53.7664 25.4723 53.6424 26.0221 53.5046C26.2235 54.2077 26.4445 54.9047 26.685 55.5956C28.9029 61.9468 32.3755 66.0015 35.976 66.0002C39.6943 65.998 43.4218 61.6415 45.6802 55.0239C45.8585 54.501 46.0274 53.9579 46.1874 53.3987C46.8977 53.5754 47.6125 53.7322 48.3319 53.8691C54.942 55.1197 60.1895 54.1361 61.9863 51.0161C63.8417 47.7933 61.9286 42.388 57.323 37.1268H57.3231ZM12.2106 22.3555C13.3681 20.3455 18.0403 19.5614 24.1688 20.8195C24.5605 20.9001 24.9589 20.9901 25.3639 21.0895C24.7656 23.7363 24.3434 26.4199 24.1002 29.1225C21.8889 30.6782 19.7806 32.3753 17.7885 34.2033C17.3496 33.7494 16.9224 33.2845 16.507 32.8086L16.5071 32.8088C12.6489 28.3817 11.124 24.2424 12.2106 22.3555ZM23.8705 39.5398C22.3389 38.38 20.9154 37.1918 19.6234 35.9968C20.9145 34.8092 22.3389 33.625 23.8674 32.4683C23.8125 33.6466 23.7853 34.8258 23.7858 36.0059C23.7866 37.1843 23.8148 38.3623 23.8705 39.5398V39.5398ZM23.8687 51.3616C21.2685 51.9398 18.5841 52.0345 15.9496 51.641C15.2274 51.5848 14.5244 51.3811 13.884 51.0424C13.2437 50.7038 12.6796 50.2374 12.2266 49.6721C11.1344 47.7801 12.5619 43.7381 16.3195 39.3814C16.792 38.8354 17.2799 38.3037 17.7833 37.7862C19.7757 39.6238 21.8874 41.3276 24.1046 42.8864C24.3512 45.6236 24.7784 48.3415 25.3833 51.0224C24.8813 51.1479 24.3765 51.261 23.8687 51.3616ZM45.1721 27.2435C44.1659 26.6095 43.1473 25.9959 42.1163 25.4026C41.1017 24.8186 40.0749 24.2565 39.0359 23.7164C40.8149 22.9684 42.5636 22.3295 44.2518 21.809C44.6498 23.6038 44.9569 25.4177 45.1721 27.2435V27.2435ZM29.037 17.5056C30.9457 11.9522 33.7699 8.56404 35.9476 8.56311C38.2668 8.562 41.2801 12.2179 43.2505 18.156C43.3785 18.5431 43.4995 18.9324 43.6135 19.3238C41.0249 20.1267 38.4922 21.1001 36.0321 22.2374C33.5822 21.0867 31.0574 20.1025 28.4751 19.2916C28.6477 18.6918 28.835 18.0965 29.037 17.5056ZM27.8359 21.777C29.5968 22.3314 31.3287 22.9742 33.0249 23.703C30.9232 24.7876 28.8759 25.969 26.8828 27.2472C27.1236 25.3332 27.444 23.4994 27.8359 21.777ZM26.8872 44.759C27.8811 45.3953 28.8895 46.008 29.9125 46.5972C30.956 47.198 32.0133 47.7736 33.0846 48.3239C31.3754 49.0779 29.6287 49.7437 27.8512 50.3187C27.4548 48.5724 27.1309 46.7064 26.8872 44.759ZM43.2543 54.1956C42.4562 56.737 41.1971 59.1097 39.54 61.1953L39.5398 61.1955C39.1303 61.7929 38.6027 62.3 37.9894 62.6855C37.3762 63.0709 36.6905 63.3265 35.9746 63.4365C33.79 63.4378 31.0016 60.1815 29.1048 54.7501C28.8814 54.108 28.6759 53.46 28.4883 52.8062C31.083 51.9691 33.618 50.957 36.0758 49.7771C38.5562 50.9218 41.109 51.9024 43.7179 52.7126C43.5755 53.2105 43.4209 53.7048 43.2543 54.1956ZM44.341 50.2229C42.6334 49.6949 40.8592 49.0454 39.0546 48.2864C40.0719 47.751 41.0966 47.1856 42.1287 46.5901C43.1878 45.9785 44.2199 45.3516 45.225 44.7094C45.0248 46.5612 44.7298 48.4015 44.341 50.223V50.2229ZM45.6799 35.9949C45.6821 37.8168 45.6252 39.6372 45.5092 41.4562C44.0312 42.4565 42.4708 43.4332 40.8472 44.3705C39.2304 45.304 37.6284 46.1618 36.057 46.9382C34.4034 46.1457 32.7816 45.2917 31.1917 44.3762C29.6108 43.4662 28.0661 42.4972 26.5577 41.4692C26.4198 39.6508 26.3503 37.829 26.3493 36.004L26.3497 36.0046C26.3484 34.1808 26.4163 32.359 26.5535 30.5391C28.0311 29.53 29.5802 28.554 31.1818 27.6293C32.7908 26.7003 34.4128 25.8461 36.0259 25.0719C37.6592 25.8657 39.263 26.7163 40.8373 27.6239C42.4172 28.5319 43.9662 29.4905 45.4843 30.4999C45.6147 32.3287 45.68 34.1604 45.6801 35.9949H45.6799ZM48.55 20.7164C54.314 19.5952 58.66 20.3494 59.7488 22.235C60.9086 24.2439 59.2463 28.6805 55.0873 33.3541L55.0871 33.3543C54.8573 33.6121 54.6189 33.871 54.3719 34.131C52.3453 32.2992 50.1964 30.6074 47.94 29.0675C47.7123 26.3943 47.3059 23.7395 46.7236 21.1207C47.3443 20.968 47.9531 20.8332 48.55 20.7164V20.7164ZM48.1604 32.3705C49.6824 33.4817 51.1457 34.6712 52.5445 35.934C51.1519 37.2176 49.6932 38.4276 48.1743 39.5589C48.2208 38.3711 48.2437 37.1827 48.243 35.9937C48.2424 34.7857 48.2149 33.5779 48.1604 32.3705V32.3705ZM59.7647 49.7368C58.6743 51.6302 54.4611 52.4198 48.808 51.3503C48.1602 51.228 47.4955 51.0824 46.8138 50.9136C47.3821 48.2611 47.7704 45.5732 47.9762 42.8683C50.2288 41.3015 52.371 39.5815 54.3874 37.7207C54.7403 38.0872 55.0759 38.4521 55.3943 38.8153V38.815C57.1975 40.7757 58.6244 43.0515 59.6036 45.5288C59.9167 46.1819 60.0926 46.8923 60.1203 47.6161C60.148 48.3399 60.027 49.0616 59.7647 49.7368V49.7368Z" fill="#FF6584"/>
</svg>
